  0
SECTION
  2
HEADER
  9
$ACADVER
  1
AC1009
  9
$INSBASE
 10
0.0
 20
0.0
 30
0.0
  9
$EXTMIN
 10
0.0
 20
0.0
 30
0.0
  9
$EXTMAX
 10
0.0
 20
0.0
 30
0.0
  0
ENDSEC
  0
SECTION
  2
TABLES
  0
TABLE
  2
VPORT
 70
1
  0
VPORT
  2
*ACTIVE
 70
0
 10
0.0
 20
0.0
 11
1.0
 21
1.0
 12
-5.0
 22
1.0
 13
0.0
 23
0.0
 14
0.1
 24
0.1
 15
0.1
 25
0.1
 16
0.0
 26
0.0
 36
1.0
 17
0.0
 27
0.0
 37
0.0
 40
10.0
 41
1.0
 42
50.0
 43
0.0
 44
0.0
 50
0.0
 51
0.0
 71
0
 72
100
 73
1
 74
1
 75
0
 76
0
 77
0
 78
0
  0
ENDTAB
  0
TABLE
  2
LTYPE
 70
8
  0
LTYPE
  2
CONTINUOUS
 70
0
  3
Solid line
 72
65
 73
0
 40
0.0
  0
LTYPE
  2
DOT
 70
0
  3
. . . . . . .
 72
65
 73
2
 40
0.25
 49
0.0
 49
-0.25
  0
LTYPE
  2
DASHED
 70
0
  3
__ __ __ __ __
 72
65
 73
2
 40
0.8
 49
0.5
 49
-0.3
  0
LTYPE
  2
DASHDOT
 70
0
  3
__ . __ . __ .
 72
65
 73
4
 40
1.0
 49
0.5
 49
-0.25
 49
0.0
 49
-0.25
  0
LTYPE
  2
DIVIDE
 70
0
  3
____ . . ____ . . 
 72
65
 73
6
 40
1.25
 49
0.5
 49
-0.25
 49
0.0
 49
-0.25
 49
0.0
 49
-0.25
  0
LTYPE
  2
BORDER
 70
0
  3
__ __ . __ __ . 
 72
65
 73
6
 40
1.75
 49
0.5
 49
-0.25
 49
0.5
 49
-0.25
 49
0.0
 49
-0.25
  0
LTYPE
  2
HIDDEN
 70
0
  3
__ __ __ __ __
 72
65
 73
2
 40
0.4
 49
0.25
 49
-0.25
  0
LTYPE
  2
CENTER
 70
0
  3
____ _ ____ _ __
 72
65
 73
4
 40
2.0
 49
1.25
 49
-0.25
 49
0.25
 49
-0.25
  0
ENDTAB
  0
TABLE
  2
LAYER
 70
1
  0
LAYER
  2
PYDXF
 70
64
 62
7
  6
continuous
  0
ENDTAB
  0
TABLE
  2
STYLE
 70
1
  0
STYLE
  2
STANDARD
 70
0
 40
0
 41
1.0
 50
0.0
 71
0
 42
1
 3
ARIAL.TTF
 4

  0
ENDTAB
  0
TABLE
  2
VIEW
 70
1
  0
VIEW
  2
BF_TOPVIEW
 70
0
 40
120.0
 10
0.0
 20
0.0
 41
200.0
 11
0.0
 21
0.0
 31
1.0
 12
0.0
 22
0.0
 32
0.0
 42
50.0
 43
0.0
 44
0.0
 50
0.0
 71
0
  0
ENDTAB
  0
ENDSEC
  0
SECTION
  2
BLOCKS
  0
ENDSEC
  0
SECTION
  2
ENTITIES
  0
LINE
  8
0
 10
105.0
 20
-149.5
 30
0.0
 11
82.5
 21
-149.5
 31
0.0
  0
LINE
  8
0
 10
82.5
 20
-149.5
 30
0.0
 11
55.0
 21
-149.5
 31
0.0
  0
LINE
  8
0
 10
55.0
 20
-149.5
 30
0.0
 11
27.5
 21
-149.5
 31
0.0
  0
LINE
  8
0
 10
27.5
 20
-149.5
 30
0.0
 11
0.0
 21
-149.5
 31
0.0
  0
LINE
  8
0
 10
0.0
 20
-149.5
 30
0.0
 11
-27.5
 21
-149.5
 31
0.0
  0
LINE
  8
0
 10
-27.5
 20
-149.5
 30
0.0
 11
-55.0
 21
-149.5
 31
0.0
  0
LINE
  8
0
 10
-55.0
 20
-149.5
 30
0.0
 11
-82.5
 21
-149.5
 31
0.0
  0
LINE
  8
0
 10
-82.5
 20
-149.5
 30
0.0
 11
-105.0
 21
-149.5
 31
0.0
  0
LINE
  8
0
 10
-105.0
 20
-149.5
 30
0.0
 11
-105.0
 21
-146.04165649414062
 31
0.0
  0
LINE
  8
0
 10
-105.0
 20
-146.04165649414062
 30
0.0
 11
-105.0
 21
-142.58334350585938
 31
0.0
  0
LINE
  8
0
 10
-105.0
 20
-142.58334350585938
 30
0.0
 11
-105.0
 21
-139.125
 31
0.0
  0
LINE
  8
0
 10
-105.0
 20
-139.125
 30
0.0
 11
-105.0
 21
-135.6666717529297
 31
0.0
  0
LINE
  8
0
 10
-105.0
 20
-135.6666717529297
 30
0.0
 11
-105.0
 21
-132.2083282470703
 31
0.0
  0
LINE
  8
0
 10
-105.0
 20
-132.2083282470703
 30
0.0
 11
-105.0
 21
-128.75
 31
0.0
  0
LINE
  8
0
 10
-105.0
 20
-128.75
 30
0.0
 11
-105.0
 21
-125.29165649414062
 31
0.0
  0
LINE
  8
0
 10
-105.0
 20
-125.29165649414062
 30
0.0
 11
-105.0
 21
-121.83332824707031
 31
0.0
  0
LINE
  8
0
 10
-105.0
 20
-121.83332824707031
 30
0.0
 11
-105.0
 21
-118.375
 31
0.0
  0
LINE
  8
0
 10
-105.0
 20
-118.375
 30
0.0
 11
-105.0
 21
-114.91665649414062
 31
0.0
  0
LINE
  8
0
 10
-105.0
 20
-114.91665649414062
 30
0.0
 11
-105.0
 21
-111.45832824707031
 31
0.0
  0
LINE
  8
0
 10
-105.0
 20
-111.45832824707031
 30
0.0
 11
-105.0
 21
-108.0
 31
0.0
  0
LINE
  8
0
 10
-105.0
 20
-108.0
 30
0.0
 11
-105.02738952636719
 21
-107.59292602539062
 31
0.0
  0
LINE
  8
0
 10
-105.02738952636719
 20
-107.59292602539062
 30
0.0
 11
-105.10716247558594
 21
-107.20248413085938
 31
0.0
  0
LINE
  8
0
 10
-105.10716247558594
 20
-107.20248413085938
 30
0.0
 11
-105.23575592041016
 21
-106.83226013183594
 31
0.0
  0
LINE
  8
0
 10
-105.23575592041016
 20
-106.83226013183594
 30
0.0
 11
-105.40959167480469
 21
-106.48583984375
 31
0.0
  0
LINE
  8
0
 10
-105.40959167480469
 20
-106.48583984375
 30
0.0
 11
-105.62509155273438
 21
-106.16679382324219
 31
0.0
  0
LINE
  8
0
 10
-105.62509155273438
 20
-106.16679382324219
 30
0.0
 11
-105.87867736816406
 21
-105.87867736816406
 31
0.0
  0
LINE
  8
0
 10
-105.87867736816406
 20
-105.87867736816406
 30
0.0
 11
-106.16679382324219
 21
-105.62509155273438
 31
0.0
  0
LINE
  8
0
 10
-106.16679382324219
 20
-105.62509155273438
 30
0.0
 11
-106.48583984375
 21
-105.40959167480469
 31
0.0
  0
LINE
  8
0
 10
-106.48583984375
 20
-105.40959167480469
 30
0.0
 11
-106.83226013183594
 21
-105.23574829101562
 31
0.0
  0
LINE
  8
0
 10
-106.83226013183594
 20
-105.23574829101562
 30
0.0
 11
-107.20248413085938
 21
-105.10716247558594
 31
0.0
  0
LINE
  8
0
 10
-107.20248413085938
 20
-105.10716247558594
 30
0.0
 11
-107.5929183959961
 21
-105.02738952636719
 31
0.0
  0
LINE
  8
0
 10
-107.5929183959961
 20
-105.02738952636719
 30
0.0
 11
-108.0
 21
-105.0
 31
0.0
  0
LINE
  8
0
 10
-108.0
 20
-105.0
 30
0.0
 11
-111.45832824707031
 21
-105.0
 31
0.0
  0
LINE
  8
0
 10
-111.45832824707031
 20
-105.0
 30
0.0
 11
-114.91666412353516
 21
-105.0
 31
0.0
  0
LINE
  8
0
 10
-114.91666412353516
 20
-105.0
 30
0.0
 11
-118.375
 21
-105.0
 31
0.0
  0
LINE
  8
0
 10
-118.375
 20
-105.0
 30
0.0
 11
-121.83332824707031
 21
-105.0
 31
0.0
  0
LINE
  8
0
 10
-121.83332824707031
 20
-105.0
 30
0.0
 11
-125.29166412353516
 21
-105.0
 31
0.0
  0
LINE
  8
0
 10
-125.29166412353516
 20
-105.0
 30
0.0
 11
-128.75
 21
-105.0
 31
0.0
  0
LINE
  8
0
 10
-128.75
 20
-105.0
 30
0.0
 11
-132.20834350585938
 21
-105.0
 31
0.0
  0
LINE
  8
0
 10
-132.20834350585938
 20
-105.0
 30
0.0
 11
-135.6666717529297
 21
-105.0
 31
0.0
  0
LINE
  8
0
 10
-135.6666717529297
 20
-105.0
 30
0.0
 11
-139.125
 21
-105.0
 31
0.0
  0
LINE
  8
0
 10
-139.125
 20
-105.0
 30
0.0
 11
-142.58334350585938
 21
-105.0
 31
0.0
  0
LINE
  8
0
 10
-142.58334350585938
 20
-105.0
 30
0.0
 11
-146.0416717529297
 21
-105.0
 31
0.0
  0
LINE
  8
0
 10
-146.0416717529297
 20
-105.0
 30
0.0
 11
-149.5
 21
-105.0
 31
0.0
  0
LINE
  8
0
 10
-149.5
 20
-105.0
 30
0.0
 11
-149.5
 21
-73.95831298828125
 31
0.0
  0
LINE
  8
0
 10
-149.5
 20
-73.95831298828125
 30
0.0
 11
-149.5
 21
-43.749969482421875
 31
0.0
  0
LINE
  8
0
 10
-149.5
 20
-43.749969482421875
 30
0.0
 11
-149.5
 21
-13.5416259765625
 31
0.0
  0
LINE
  8
0
 10
-149.5
 20
-13.5416259765625
 30
0.0
 11
-149.5
 21
16.666717529296875
 31
0.0
  0
LINE
  8
0
 10
-149.5
 20
16.666717529296875
 30
0.0
 11
-149.5
 21
46.87506103515625
 31
0.0
  0
LINE
  8
0
 10
-149.5
 20
46.87506103515625
 30
0.0
 11
-149.5
 21
77.08340454101562
 31
0.0
  0
LINE
  8
0
 10
-149.5
 20
77.08340454101562
 30
0.0
 11
-149.5
 21
107.291748046875
 31
0.0
  0
LINE
  8
0
 10
-149.5
 20
107.291748046875
 30
0.0
 11
-149.5
 21
137.5
 31
0.0
  0
LINE
  8
0
 10
-149.5
 20
137.5
 30
0.0
 11
-148.3333282470703
 21
137.5
 31
0.0
  0
LINE
  8
0
 10
-148.3333282470703
 20
137.5
 30
0.0
 11
-147.1666717529297
 21
137.5
 31
0.0
  0
LINE
  8
0
 10
-147.1666717529297
 20
137.5
 30
0.0
 11
-146.0
 21
137.5
 31
0.0
  0
LINE
  8
0
 10
-146.0
 20
137.5
 30
0.0
 11
-144.83334350585938
 21
137.5
 31
0.0
  0
LINE
  8
0
 10
-144.83334350585938
 20
137.5
 30
0.0
 11
-143.66665649414062
 21
137.5
 31
0.0
  0
LINE
  8
0
 10
-143.66665649414062
 20
137.5
 30
0.0
 11
-142.5
 21
137.5
 31
0.0
  0
LINE
  8
0
 10
-142.5
 20
137.5
 30
0.0
 11
-141.3333282470703
 21
137.5
 31
0.0
  0
LINE
  8
0
 10
-141.3333282470703
 20
137.5
 30
0.0
 11
-140.16665649414062
 21
137.5
 31
0.0
  0
LINE
  8
0
 10
-140.16665649414062
 20
137.5
 30
0.0
 11
-139.0
 21
137.5
 31
0.0
  0
LINE
  8
0
 10
-139.0
 20
137.5
 30
0.0
 11
-137.8333282470703
 21
137.5
 31
0.0
  0
LINE
  8
0
 10
-137.8333282470703
 20
137.5
 30
0.0
 11
-136.66665649414062
 21
137.5
 31
0.0
  0
LINE
  8
0
 10
-136.66665649414062
 20
137.5
 30
0.0
 11
-135.5
 21
137.5
 31
0.0
  0
LINE
  8
0
 10
-135.5
 20
137.5
 30
0.0
 11
-135.5
 21
138.5
 31
0.0
  0
LINE
  8
0
 10
-135.5
 20
138.5
 30
0.0
 11
-135.5
 21
139.5
 31
0.0
  0
LINE
  8
0
 10
-135.5
 20
139.5
 30
0.0
 11
-135.5
 21
140.5
 31
0.0
  0
LINE
  8
0
 10
-135.5
 20
140.5
 30
0.0
 11
-135.5
 21
141.5
 31
0.0
  0
LINE
  8
0
 10
-135.5
 20
141.5
 30
0.0
 11
-135.5
 21
142.5
 31
0.0
  0
LINE
  8
0
 10
-135.5
 20
142.5
 30
0.0
 11
-135.5
 21
143.5
 31
0.0
  0
LINE
  8
0
 10
-135.5
 20
143.5
 30
0.0
 11
-135.5
 21
144.5
 31
0.0
  0
LINE
  8
0
 10
-135.5
 20
144.5
 30
0.0
 11
-135.5
 21
145.5
 31
0.0
  0
LINE
  8
0
 10
-135.5
 20
145.5
 30
0.0
 11
-135.5
 21
146.5
 31
0.0
  0
LINE
  8
0
 10
-135.5
 20
146.5
 30
0.0
 11
-135.5
 21
147.5
 31
0.0
  0
LINE
  8
0
 10
-135.5
 20
147.5
 30
0.0
 11
-135.5
 21
148.5
 31
0.0
  0
LINE
  8
0
 10
-135.5
 20
148.5
 30
0.0
 11
-135.5
 21
149.5
 31
0.0
  0
LINE
  8
0
 10
-135.5
 20
149.5
 30
0.0
 11
-126.04166412353516
 21
149.5
 31
0.0
  0
LINE
  8
0
 10
-126.04166412353516
 20
149.5
 30
0.0
 11
-116.58332824707031
 21
149.5
 31
0.0
  0
LINE
  8
0
 10
-116.58332824707031
 20
149.5
 30
0.0
 11
-107.125
 21
149.5
 31
0.0
  0
LINE
  8
0
 10
-107.125
 20
149.5
 30
0.0
 11
-98.20832824707031
 21
149.5
 31
0.0
  0
LINE
  8
0
 10
-98.20832824707031
 20
149.5
 30
0.0
 11
-92.0
 21
149.5
 31
0.0
  0
LINE
  8
0
 10
-92.0
 20
149.5
 30
0.0
 11
-92.0
 21
148.5
 31
0.0
  0
LINE
  8
0
 10
-92.0
 20
148.5
 30
0.0
 11
-92.0
 21
147.5
 31
0.0
  0
LINE
  8
0
 10
-92.0
 20
147.5
 30
0.0
 11
-92.0
 21
146.5
 31
0.0
  0
LINE
  8
0
 10
-92.0
 20
146.5
 30
0.0
 11
-92.0
 21
145.5
 31
0.0
  0
LINE
  8
0
 10
-92.0
 20
145.5
 30
0.0
 11
-92.0
 21
144.5
 31
0.0
  0
LINE
  8
0
 10
-92.0
 20
144.5
 30
0.0
 11
-92.0
 21
143.5
 31
0.0
  0
LINE
  8
0
 10
-92.0
 20
143.5
 30
0.0
 11
-92.0
 21
142.5
 31
0.0
  0
LINE
  8
0
 10
-92.0
 20
142.5
 30
0.0
 11
-92.0
 21
141.5
 31
0.0
  0
LINE
  8
0
 10
-92.0
 20
141.5
 30
0.0
 11
-92.0
 21
140.5
 31
0.0
  0
LINE
  8
0
 10
-92.0
 20
140.5
 30
0.0
 11
-92.0
 21
139.5
 31
0.0
  0
LINE
  8
0
 10
-92.0
 20
139.5
 30
0.0
 11
-92.0
 21
138.5
 31
0.0
  0
LINE
  8
0
 10
-92.0
 20
138.5
 30
0.0
 11
-92.0
 21
137.5
 31
0.0
  0
LINE
  8
0
 10
-92.0
 20
137.5
 30
0.0
 11
-91.0
 21
137.5
 31
0.0
  0
LINE
  8
0
 10
-91.0
 20
137.5
 30
0.0
 11
-90.0
 21
137.5
 31
0.0
  0
LINE
  8
0
 10
-90.0
 20
137.5
 30
0.0
 11
-89.0
 21
137.5
 31
0.0
  0
LINE
  8
0
 10
-89.0
 20
137.5
 30
0.0
 11
-88.0
 21
137.5
 31
0.0
  0
LINE
  8
0
 10
-88.0
 20
137.5
 30
0.0
 11
-87.0
 21
137.5
 31
0.0
  0
LINE
  8
0
 10
-87.0
 20
137.5
 30
0.0
 11
-86.0
 21
137.5
 31
0.0
  0
LINE
  8
0
 10
-86.0
 20
137.5
 30
0.0
 11
-85.0
 21
137.5
 31
0.0
  0
LINE
  8
0
 10
-85.0
 20
137.5
 30
0.0
 11
-84.0
 21
137.5
 31
0.0
  0
LINE
  8
0
 10
-84.0
 20
137.5
 30
0.0
 11
-83.0
 21
137.5
 31
0.0
  0
LINE
  8
0
 10
-83.0
 20
137.5
 30
0.0
 11
-82.0
 21
137.5
 31
0.0
  0
LINE
  8
0
 10
-82.0
 20
137.5
 30
0.0
 11
-81.0
 21
137.5
 31
0.0
  0
LINE
  8
0
 10
-81.0
 20
137.5
 30
0.0
 11
-80.0
 21
137.5
 31
0.0
  0
LINE
  8
0
 10
-80.0
 20
137.5
 30
0.0
 11
-80.0
 21
138.5
 31
0.0
  0
LINE
  8
0
 10
-80.0
 20
138.5
 30
0.0
 11
-80.0
 21
139.5
 31
0.0
  0
LINE
  8
0
 10
-80.0
 20
139.5
 30
0.0
 11
-80.0
 21
140.5
 31
0.0
  0
LINE
  8
0
 10
-80.0
 20
140.5
 30
0.0
 11
-80.0
 21
141.5
 31
0.0
  0
LINE
  8
0
 10
-80.0
 20
141.5
 30
0.0
 11
-80.0
 21
142.5
 31
0.0
  0
LINE
  8
0
 10
-80.0
 20
142.5
 30
0.0
 11
-80.0
 21
143.5
 31
0.0
  0
LINE
  8
0
 10
-80.0
 20
143.5
 30
0.0
 11
-80.0
 21
144.5
 31
0.0
  0
LINE
  8
0
 10
-80.0
 20
144.5
 30
0.0
 11
-80.0
 21
145.5
 31
0.0
  0
LINE
  8
0
 10
-80.0
 20
145.5
 30
0.0
 11
-80.0
 21
146.5
 31
0.0
  0
LINE
  8
0
 10
-80.0
 20
146.5
 30
0.0
 11
-80.0
 21
147.5
 31
0.0
  0
LINE
  8
0
 10
-80.0
 20
147.5
 30
0.0
 11
-80.0
 21
148.5
 31
0.0
  0
LINE
  8
0
 10
-80.0
 20
148.5
 30
0.0
 11
-80.0
 21
149.5
 31
0.0
  0
LINE
  8
0
 10
-80.0
 20
149.5
 30
0.0
 11
-67.41667175292969
 21
149.5
 31
0.0
  0
LINE
  8
0
 10
-67.41667175292969
 20
149.5
 30
0.0
 11
-64.83334350585938
 21
149.5
 31
0.0
  0
LINE
  8
0
 10
-64.83334350585938
 20
149.5
 30
0.0
 11
-62.25001525878906
 21
149.5
 31
0.0
  0
LINE
  8
0
 10
-62.25001525878906
 20
149.5
 30
0.0
 11
-59.66668701171875
 21
149.5
 31
0.0
  0
LINE
  8
0
 10
-59.66668701171875
 20
149.5
 30
0.0
 11
-57.08335876464844
 21
149.5
 31
0.0
  0
LINE
  8
0
 10
-57.08335876464844
 20
149.5
 30
0.0
 11
-54.500030517578125
 21
149.5
 31
0.0
  0
LINE
  8
0
 10
-54.500030517578125
 20
149.5
 30
0.0
 11
-51.91670227050781
 21
149.5
 31
0.0
  0
LINE
  8
0
 10
-51.91670227050781
 20
149.5
 30
0.0
 11
-49.3333740234375
 21
149.5
 31
0.0
  0
LINE
  8
0
 10
-49.3333740234375
 20
149.5
 30
0.0
 11
-46.75004577636719
 21
149.5
 31
0.0
  0
LINE
  8
0
 10
-46.75004577636719
 20
149.5
 30
0.0
 11
-44.166717529296875
 21
149.5
 31
0.0
  0
LINE
  8
0
 10
-44.166717529296875
 20
149.5
 30
0.0
 11
-41.58338928222656
 21
149.5
 31
0.0
  0
LINE
  8
0
 10
-41.58338928222656
 20
149.5
 30
0.0
 11
-39.0
 21
149.5
 31
0.0
  0
LINE
  8
0
 10
-39.0
 20
149.5
 30
0.0
 11
-39.0
 21
148.79165649414062
 31
0.0
  0
LINE
  8
0
 10
-39.0
 20
148.79165649414062
 30
0.0
 11
-39.0
 21
148.08331298828125
 31
0.0
  0
LINE
  8
0
 10
-39.0
 20
148.08331298828125
 30
0.0
 11
-39.0
 21
147.37496948242188
 31
0.0
  0
LINE
  8
0
 10
-39.0
 20
147.37496948242188
 30
0.0
 11
-39.0
 21
146.6666259765625
 31
0.0
  0
LINE
  8
0
 10
-39.0
 20
146.6666259765625
 30
0.0
 11
-39.0
 21
145.95828247070312
 31
0.0
  0
LINE
  8
0
 10
-39.0
 20
145.95828247070312
 30
0.0
 11
-39.0
 21
145.24993896484375
 31
0.0
  0
LINE
  8
0
 10
-39.0
 20
145.24993896484375
 30
0.0
 11
-39.0
 21
144.54159545898438
 31
0.0
  0
LINE
  8
0
 10
-39.0
 20
144.54159545898438
 30
0.0
 11
-39.0
 21
143.833251953125
 31
0.0
  0
LINE
  8
0
 10
-39.0
 20
143.833251953125
 30
0.0
 11
-39.0
 21
143.12490844726562
 31
0.0
  0
LINE
  8
0
 10
-39.0
 20
143.12490844726562
 30
0.0
 11
-39.0
 21
142.41656494140625
 31
0.0
  0
LINE
  8
0
 10
-39.0
 20
142.41656494140625
 30
0.0
 11
-39.0
 21
141.70822143554688
 31
0.0
  0
LINE
  8
0
 10
-39.0
 20
141.70822143554688
 30
0.0
 11
-39.0
 21
141.0
 31
0.0
  0
LINE
  8
0
 10
-39.0
 20
141.0
 30
0.0
 11
-37.91667175292969
 21
141.0
 31
0.0
  0
LINE
  8
0
 10
-37.91667175292969
 20
141.0
 30
0.0
 11
-36.833343505859375
 21
141.0
 31
0.0
  0
LINE
  8
0
 10
-36.833343505859375
 20
141.0
 30
0.0
 11
-35.75001525878906
 21
141.0
 31
0.0
  0
LINE
  8
0
 10
-35.75001525878906
 20
141.0
 30
0.0
 11
-34.66668701171875
 21
141.0
 31
0.0
  0
LINE
  8
0
 10
-34.66668701171875
 20
141.0
 30
0.0
 11
-33.58335876464844
 21
141.0
 31
0.0
  0
LINE
  8
0
 10
-33.58335876464844
 20
141.0
 30
0.0
 11
-32.500030517578125
 21
141.0
 31
0.0
  0
LINE
  8
0
 10
-32.500030517578125
 20
141.0
 30
0.0
 11
-31.416702270507812
 21
141.0
 31
0.0
  0
LINE
  8
0
 10
-31.416702270507812
 20
141.0
 30
0.0
 11
-30.3333740234375
 21
141.0
 31
0.0
  0
LINE
  8
0
 10
-30.3333740234375
 20
141.0
 30
0.0
 11
-29.250045776367188
 21
141.0
 31
0.0
  0
LINE
  8
0
 10
-29.250045776367188
 20
141.0
 30
0.0
 11
-28.166717529296875
 21
141.0
 31
0.0
  0
LINE
  8
0
 10
-28.166717529296875
 20
141.0
 30
0.0
 11
-27.083389282226562
 21
141.0
 31
0.0
  0
LINE
  8
0
 10
-27.083389282226562
 20
141.0
 30
0.0
 11
-26.0
 21
141.0
 31
0.0
  0
LINE
  8
0
 10
-26.0
 20
141.0
 30
0.0
 11
-26.0
 21
137.66665649414062
 31
0.0
  0
LINE
  8
0
 10
-26.0
 20
137.66665649414062
 30
0.0
 11
-26.0
 21
134.33331298828125
 31
0.0
  0
LINE
  8
0
 10
-26.0
 20
134.33331298828125
 30
0.0
 11
-26.0
 21
130.99996948242188
 31
0.0
  0
LINE
  8
0
 10
-26.0
 20
130.99996948242188
 30
0.0
 11
-26.0
 21
127.6666259765625
 31
0.0
  0
LINE
  8
0
 10
-26.0
 20
127.6666259765625
 30
0.0
 11
-26.0
 21
124.33328247070312
 31
0.0
  0
LINE
  8
0
 10
-26.0
 20
124.33328247070312
 30
0.0
 11
-26.0
 21
120.99993896484375
 31
0.0
  0
LINE
  8
0
 10
-26.0
 20
120.99993896484375
 30
0.0
 11
-26.0
 21
117.66659545898438
 31
0.0
  0
LINE
  8
0
 10
-26.0
 20
117.66659545898438
 30
0.0
 11
-26.0
 21
114.333251953125
 31
0.0
  0
LINE
  8
0
 10
-26.0
 20
114.333251953125
 30
0.0
 11
-26.0
 21
110.99990844726562
 31
0.0
  0
LINE
  8
0
 10
-26.0
 20
110.99990844726562
 30
0.0
 11
-26.0
 21
107.66656494140625
 31
0.0
  0
LINE
  8
0
 10
-26.0
 20
107.66656494140625
 30
0.0
 11
-26.0
 21
104.33322143554688
 31
0.0
  0
LINE
  8
0
 10
-26.0
 20
104.33322143554688
 30
0.0
 11
-26.0
 21
101.0
 31
0.0
  0
LINE
  8
0
 10
-26.0
 20
101.0
 30
0.0
 11
-25.972610473632812
 21
100.59292602539062
 31
0.0
  0
LINE
  8
0
 10
-25.972610473632812
 20
100.59292602539062
 30
0.0
 11
-25.892837524414062
 21
100.20248413085938
 31
0.0
  0
LINE
  8
0
 10
-25.892837524414062
 20
100.20248413085938
 30
0.0
 11
-25.764251708984375
 21
99.832275390625
 31
0.0
  0
LINE
  8
0
 10
-25.764251708984375
 20
99.832275390625
 30
0.0
 11
-25.590423583984375
 21
99.48583984375
 31
0.0
  0
LINE
  8
0
 10
-25.590423583984375
 20
99.48583984375
 30
0.0
 11
-25.374923706054688
 21
99.16677856445312
 31
0.0
  0
LINE
  8
0
 10
-25.374923706054688
 20
99.16677856445312
 30
0.0
 11
-25.121337890625
 21
98.878662109375
 31
0.0
  0
LINE
  8
0
 10
-25.121337890625
 20
98.878662109375
 30
0.0
 11
-24.833221435546875
 21
98.62506103515625
 31
0.0
  0
LINE
  8
0
 10
-24.833221435546875
 20
98.62506103515625
 30
0.0
 11
-24.514175415039062
 21
98.40957641601562
 31
0.0
  0
LINE
  8
0
 10
-24.514175415039062
 20
98.40957641601562
 30
0.0
 11
-24.167755126953125
 21
98.23574829101562
 31
0.0
  0
LINE
  8
0
 10
-24.167755126953125
 20
98.23574829101562
 30
0.0
 11
-23.797531127929688
 21
98.10714721679688
 31
0.0
  0
LINE
  8
0
 10
-23.797531127929688
 20
98.10714721679688
 30
0.0
 11
-23.407089233398438
 21
98.02737426757812
 31
0.0
  0
LINE
  8
0
 10
-23.407089233398438
 20
98.02737426757812
 30
0.0
 11
-23.0
 21
98.0
 31
0.0
  0
LINE
  8
0
 10
-23.0
 20
98.0
 30
0.0
 11
-19.166671752929688
 21
98.0
 31
0.0
  0
LINE
  8
0
 10
-19.166671752929688
 20
98.0
 30
0.0
 11
-15.333343505859375
 21
98.0
 31
0.0
  0
LINE
  8
0
 10
-15.333343505859375
 20
98.0
 30
0.0
 11
-11.500015258789062
 21
98.0
 31
0.0
  0
LINE
  8
0
 10
-11.500015258789062
 20
98.0
 30
0.0
 11
-7.66668701171875
 21
98.0
 31
0.0
  0
LINE
  8
0
 10
-7.66668701171875
 20
98.0
 30
0.0
 11
-3.8333587646484375
 21
98.0
 31
0.0
  0
LINE
  8
0
 10
-3.8333587646484375
 20
98.0
 30
0.0
 11
-3.0517578125e-05
 21
98.0
 31
0.0
  0
LINE
  8
0
 10
-3.0517578125e-05
 20
98.0
 30
0.0
 11
3.8332977294921875
 21
98.0
 31
0.0
  0
LINE
  8
0
 10
3.8332977294921875
 20
98.0
 30
0.0
 11
7.6666259765625
 21
98.0
 31
0.0
  0
LINE
  8
0
 10
7.6666259765625
 20
98.0
 30
0.0
 11
11.499954223632812
 21
98.0
 31
0.0
  0
LINE
  8
0
 10
11.499954223632812
 20
98.0
 30
0.0
 11
15.333282470703125
 21
98.0
 31
0.0
  0
LINE
  8
0
 10
15.333282470703125
 20
98.0
 30
0.0
 11
19.166610717773438
 21
98.0
 31
0.0
  0
LINE
  8
0
 10
19.166610717773438
 20
98.0
 30
0.0
 11
23.0
 21
98.0
 31
0.0
  0
LINE
  8
0
 10
23.0
 20
98.0
 30
0.0
 11
23.407089233398438
 21
98.02737426757812
 31
0.0
  0
LINE
  8
0
 10
23.407089233398438
 20
98.02737426757812
 30
0.0
 11
23.797531127929688
 21
98.10714721679688
 31
0.0
  0
LINE
  8
0
 10
23.797531127929688
 20
98.10714721679688
 30
0.0
 11
24.167755126953125
 21
98.23574829101562
 31
0.0
  0
LINE
  8
0
 10
24.167755126953125
 20
98.23574829101562
 30
0.0
 11
24.514175415039062
 21
98.40957641601562
 31
0.0
  0
LINE
  8
0
 10
24.514175415039062
 20
98.40957641601562
 30
0.0
 11
24.833221435546875
 21
98.62506103515625
 31
0.0
  0
LINE
  8
0
 10
24.833221435546875
 20
98.62506103515625
 30
0.0
 11
25.121337890625
 21
98.878662109375
 31
0.0
  0
LINE
  8
0
 10
25.121337890625
 20
98.878662109375
 30
0.0
 11
25.374923706054688
 21
99.16677856445312
 31
0.0
  0
LINE
  8
0
 10
25.374923706054688
 20
99.16677856445312
 30
0.0
 11
25.590423583984375
 21
99.48583984375
 31
0.0
  0
LINE
  8
0
 10
25.590423583984375
 20
99.48583984375
 30
0.0
 11
25.764251708984375
 21
99.832275390625
 31
0.0
  0
LINE
  8
0
 10
25.764251708984375
 20
99.832275390625
 30
0.0
 11
25.892837524414062
 21
100.20248413085938
 31
0.0
  0
LINE
  8
0
 10
25.892837524414062
 20
100.20248413085938
 30
0.0
 11
25.972610473632812
 21
100.59292602539062
 31
0.0
  0
LINE
  8
0
 10
25.972610473632812
 20
100.59292602539062
 30
0.0
 11
26.0
 21
101.0
 31
0.0
  0
LINE
  8
0
 10
26.0
 20
101.0
 30
0.0
 11
26.0
 21
104.33334350585938
 31
0.0
  0
LINE
  8
0
 10
26.0
 20
104.33334350585938
 30
0.0
 11
26.0
 21
107.66668701171875
 31
0.0
  0
LINE
  8
0
 10
26.0
 20
107.66668701171875
 30
0.0
 11
26.0
 21
111.00003051757812
 31
0.0
  0
LINE
  8
0
 10
26.0
 20
111.00003051757812
 30
0.0
 11
26.0
 21
114.3333740234375
 31
0.0
  0
LINE
  8
0
 10
26.0
 20
114.3333740234375
 30
0.0
 11
26.0
 21
117.66671752929688
 31
0.0
  0
LINE
  8
0
 10
26.0
 20
117.66671752929688
 30
0.0
 11
26.0
 21
121.00006103515625
 31
0.0
  0
LINE
  8
0
 10
26.0
 20
121.00006103515625
 30
0.0
 11
26.0
 21
124.33340454101562
 31
0.0
  0
LINE
  8
0
 10
26.0
 20
124.33340454101562
 30
0.0
 11
26.0
 21
127.666748046875
 31
0.0
  0
LINE
  8
0
 10
26.0
 20
127.666748046875
 30
0.0
 11
26.0
 21
131.00009155273438
 31
0.0
  0
LINE
  8
0
 10
26.0
 20
131.00009155273438
 30
0.0
 11
26.0
 21
134.33343505859375
 31
0.0
  0
LINE
  8
0
 10
26.0
 20
134.33343505859375
 30
0.0
 11
26.0
 21
137.66677856445312
 31
0.0
  0
LINE
  8
0
 10
26.0
 20
137.66677856445312
 30
0.0
 11
26.0
 21
141.0
 31
0.0
  0
LINE
  8
0
 10
26.0
 20
141.0
 30
0.0
 11
27.083328247070312
 21
141.0
 31
0.0
  0
LINE
  8
0
 10
27.083328247070312
 20
141.0
 30
0.0
 11
28.166656494140625
 21
141.0
 31
0.0
  0
LINE
  8
0
 10
28.166656494140625
 20
141.0
 30
0.0
 11
29.249984741210938
 21
141.0
 31
0.0
  0
LINE
  8
0
 10
29.249984741210938
 20
141.0
 30
0.0
 11
30.33331298828125
 21
141.0
 31
0.0
  0
LINE
  8
0
 10
30.33331298828125
 20
141.0
 30
0.0
 11
31.416641235351562
 21
141.0
 31
0.0
  0
LINE
  8
0
 10
31.416641235351562
 20
141.0
 30
0.0
 11
32.499969482421875
 21
141.0
 31
0.0
  0
LINE
  8
0
 10
32.499969482421875
 20
141.0
 30
0.0
 11
33.58329772949219
 21
141.0
 31
0.0
  0
LINE
  8
0
 10
33.58329772949219
 20
141.0
 30
0.0
 11
34.6666259765625
 21
141.0
 31
0.0
  0
LINE
  8
0
 10
34.6666259765625
 20
141.0
 30
0.0
 11
35.74995422363281
 21
141.0
 31
0.0
  0
LINE
  8
0
 10
35.74995422363281
 20
141.0
 30
0.0
 11
36.833282470703125
 21
141.0
 31
0.0
  0
LINE
  8
0
 10
36.833282470703125
 20
141.0
 30
0.0
 11
37.91661071777344
 21
141.0
 31
0.0
  0
LINE
  8
0
 10
37.91661071777344
 20
141.0
 30
0.0
 11
39.0
 21
141.0
 31
0.0
  0
LINE
  8
0
 10
39.0
 20
141.0
 30
0.0
 11
39.0
 21
141.70834350585938
 31
0.0
  0
LINE
  8
0
 10
39.0
 20
141.70834350585938
 30
0.0
 11
39.0
 21
142.41668701171875
 31
0.0
  0
LINE
  8
0
 10
39.0
 20
142.41668701171875
 30
0.0
 11
39.0
 21
143.12503051757812
 31
0.0
  0
LINE
  8
0
 10
39.0
 20
143.12503051757812
 30
0.0
 11
39.0
 21
143.8333740234375
 31
0.0
  0
LINE
  8
0
 10
39.0
 20
143.8333740234375
 30
0.0
 11
39.0
 21
144.54171752929688
 31
0.0
  0
LINE
  8
0
 10
39.0
 20
144.54171752929688
 30
0.0
 11
39.0
 21
145.25006103515625
 31
0.0
  0
LINE
  8
0
 10
39.0
 20
145.25006103515625
 30
0.0
 11
39.0
 21
145.95840454101562
 31
0.0
  0
LINE
  8
0
 10
39.0
 20
145.95840454101562
 30
0.0
 11
39.0
 21
146.666748046875
 31
0.0
  0
LINE
  8
0
 10
39.0
 20
146.666748046875
 30
0.0
 11
39.0
 21
147.37509155273438
 31
0.0
  0
LINE
  8
0
 10
39.0
 20
147.37509155273438
 30
0.0
 11
39.0
 21
148.08343505859375
 31
0.0
  0
LINE
  8
0
 10
39.0
 20
148.08343505859375
 30
0.0
 11
39.0
 21
148.79177856445312
 31
0.0
  0
LINE
  8
0
 10
39.0
 20
148.79177856445312
 30
0.0
 11
39.0
 21
149.5
 31
0.0
  0
LINE
  8
0
 10
39.0
 20
149.5
 30
0.0
 11
52.041656494140625
 21
149.5
 31
0.0
  0
LINE
  8
0
 10
52.041656494140625
 20
149.5
 30
0.0
 11
65.08331298828125
 21
149.5
 31
0.0
  0
LINE
  8
0
 10
65.08331298828125
 20
149.5
 30
0.0
 11
78.12496948242188
 21
149.5
 31
0.0
  0
LINE
  8
0
 10
78.12496948242188
 20
149.5
 30
0.0
 11
91.1666259765625
 21
149.5
 31
0.0
  0
LINE
  8
0
 10
91.1666259765625
 20
149.5
 30
0.0
 11
104.20828247070312
 21
149.5
 31
0.0
  0
LINE
  8
0
 10
104.20828247070312
 20
149.5
 30
0.0
 11
117.24993896484375
 21
149.5
 31
0.0
  0
LINE
  8
0
 10
117.24993896484375
 20
149.5
 30
0.0
 11
130.29159545898438
 21
149.5
 31
0.0
  0
LINE
  8
0
 10
130.29159545898438
 20
149.5
 30
0.0
 11
135.5
 21
149.5
 31
0.0
  0
LINE
  8
0
 10
135.5
 20
149.5
 30
0.0
 11
135.5
 21
148.5
 31
0.0
  0
LINE
  8
0
 10
135.5
 20
148.5
 30
0.0
 11
135.5
 21
147.5
 31
0.0
  0
LINE
  8
0
 10
135.5
 20
147.5
 30
0.0
 11
135.5
 21
146.5
 31
0.0
  0
LINE
  8
0
 10
135.5
 20
146.5
 30
0.0
 11
135.5
 21
145.5
 31
0.0
  0
LINE
  8
0
 10
135.5
 20
145.5
 30
0.0
 11
135.5
 21
144.5
 31
0.0
  0
LINE
  8
0
 10
135.5
 20
144.5
 30
0.0
 11
135.5
 21
143.5
 31
0.0
  0
LINE
  8
0
 10
135.5
 20
143.5
 30
0.0
 11
135.5
 21
142.5
 31
0.0
  0
LINE
  8
0
 10
135.5
 20
142.5
 30
0.0
 11
135.5
 21
141.5
 31
0.0
  0
LINE
  8
0
 10
135.5
 20
141.5
 30
0.0
 11
135.5
 21
140.5
 31
0.0
  0
LINE
  8
0
 10
135.5
 20
140.5
 30
0.0
 11
135.5
 21
139.5
 31
0.0
  0
LINE
  8
0
 10
135.5
 20
139.5
 30
0.0
 11
135.5
 21
138.5
 31
0.0
  0
LINE
  8
0
 10
135.5
 20
138.5
 30
0.0
 11
135.5
 21
137.5
 31
0.0
  0
LINE
  8
0
 10
135.5
 20
137.5
 30
0.0
 11
136.66665649414062
 21
137.5
 31
0.0
  0
LINE
  8
0
 10
136.66665649414062
 20
137.5
 30
0.0
 11
137.83331298828125
 21
137.5
 31
0.0
  0
LINE
  8
0
 10
137.83331298828125
 20
137.5
 30
0.0
 11
138.99996948242188
 21
137.5
 31
0.0
  0
LINE
  8
0
 10
138.99996948242188
 20
137.5
 30
0.0
 11
140.1666259765625
 21
137.5
 31
0.0
  0
LINE
  8
0
 10
140.1666259765625
 20
137.5
 30
0.0
 11
141.33328247070312
 21
137.5
 31
0.0
  0
LINE
  8
0
 10
141.33328247070312
 20
137.5
 30
0.0
 11
142.49993896484375
 21
137.5
 31
0.0
  0
LINE
  8
0
 10
142.49993896484375
 20
137.5
 30
0.0
 11
143.66659545898438
 21
137.5
 31
0.0
  0
LINE
  8
0
 10
143.66659545898438
 20
137.5
 30
0.0
 11
144.833251953125
 21
137.5
 31
0.0
  0
LINE
  8
0
 10
144.833251953125
 20
137.5
 30
0.0
 11
145.99990844726562
 21
137.5
 31
0.0
  0
LINE
  8
0
 10
145.99990844726562
 20
137.5
 30
0.0
 11
147.16656494140625
 21
137.5
 31
0.0
  0
LINE
  8
0
 10
147.16656494140625
 20
137.5
 30
0.0
 11
148.33322143554688
 21
137.5
 31
0.0
  0
LINE
  8
0
 10
148.33322143554688
 20
137.5
 30
0.0
 11
149.5
 21
137.5
 31
0.0
  0
LINE
  8
0
 10
149.5
 20
137.5
 30
0.0
 11
149.5
 21
107.29165649414062
 31
0.0
  0
LINE
  8
0
 10
149.5
 20
107.29165649414062
 30
0.0
 11
149.5
 21
77.08331298828125
 31
0.0
  0
LINE
  8
0
 10
149.5
 20
77.08331298828125
 30
0.0
 11
149.5
 21
46.874969482421875
 31
0.0
  0
LINE
  8
0
 10
149.5
 20
46.874969482421875
 30
0.0
 11
149.5
 21
16.6666259765625
 31
0.0
  0
LINE
  8
0
 10
149.5
 20
16.6666259765625
 30
0.0
 11
149.5
 21
-13.541717529296875
 31
0.0
  0
LINE
  8
0
 10
149.5
 20
-13.541717529296875
 30
0.0
 11
149.5
 21
-43.75006103515625
 31
0.0
  0
LINE
  8
0
 10
149.5
 20
-43.75006103515625
 30
0.0
 11
149.5
 21
-73.95840454101562
 31
0.0
  0
LINE
  8
0
 10
149.5
 20
-73.95840454101562
 30
0.0
 11
149.5
 21
-105.0
 31
0.0
  0
LINE
  8
0
 10
149.5
 20
-105.0
 30
0.0
 11
146.04165649414062
 21
-105.0
 31
0.0
  0
LINE
  8
0
 10
146.04165649414062
 20
-105.0
 30
0.0
 11
142.58331298828125
 21
-105.0
 31
0.0
  0
LINE
  8
0
 10
142.58331298828125
 20
-105.0
 30
0.0
 11
139.12496948242188
 21
-105.0
 31
0.0
  0
LINE
  8
0
 10
139.12496948242188
 20
-105.0
 30
0.0
 11
135.6666259765625
 21
-105.0
 31
0.0
  0
LINE
  8
0
 10
135.6666259765625
 20
-105.0
 30
0.0
 11
132.20828247070312
 21
-105.0
 31
0.0
  0
LINE
  8
0
 10
132.20828247070312
 20
-105.0
 30
0.0
 11
128.74993896484375
 21
-105.0
 31
0.0
  0
LINE
  8
0
 10
128.74993896484375
 20
-105.0
 30
0.0
 11
125.29159545898438
 21
-105.0
 31
0.0
  0
LINE
  8
0
 10
125.29159545898438
 20
-105.0
 30
0.0
 11
121.833251953125
 21
-105.0
 31
0.0
  0
LINE
  8
0
 10
121.833251953125
 20
-105.0
 30
0.0
 11
118.37490844726562
 21
-105.0
 31
0.0
  0
LINE
  8
0
 10
118.37490844726562
 20
-105.0
 30
0.0
 11
114.91656494140625
 21
-105.0
 31
0.0
  0
LINE
  8
0
 10
114.91656494140625
 20
-105.0
 30
0.0
 11
111.45822143554688
 21
-105.0
 31
0.0
  0
LINE
  8
0
 10
111.45822143554688
 20
-105.0
 30
0.0
 11
108.0
 21
-105.0
 31
0.0
  0
LINE
  8
0
 10
108.0
 20
-105.0
 30
0.0
 11
107.59292602539062
 21
-105.02738952636719
 31
0.0
  0
LINE
  8
0
 10
107.59292602539062
 20
-105.02738952636719
 30
0.0
 11
107.20248413085938
 21
-105.10716247558594
 31
0.0
  0
LINE
  8
0
 10
107.20248413085938
 20
-105.10716247558594
 30
0.0
 11
106.832275390625
 21
-105.23574829101562
 31
0.0
  0
LINE
  8
0
 10
106.832275390625
 20
-105.23574829101562
 30
0.0
 11
106.48583984375
 21
-105.40959167480469
 31
0.0
  0
LINE
  8
0
 10
106.48583984375
 20
-105.40959167480469
 30
0.0
 11
106.16677856445312
 21
-105.62509155273438
 31
0.0
  0
LINE
  8
0
 10
106.16677856445312
 20
-105.62509155273438
 30
0.0
 11
105.878662109375
 21
-105.87867736816406
 31
0.0
  0
LINE
  8
0
 10
105.878662109375
 20
-105.87867736816406
 30
0.0
 11
105.62506103515625
 21
-106.16679382324219
 31
0.0
  0
LINE
  8
0
 10
105.62506103515625
 20
-106.16679382324219
 30
0.0
 11
105.40957641601562
 21
-106.48583984375
 31
0.0
  0
LINE
  8
0
 10
105.40957641601562
 20
-106.48583984375
 30
0.0
 11
105.23574829101562
 21
-106.83226013183594
 31
0.0
  0
LINE
  8
0
 10
105.23574829101562
 20
-106.83226013183594
 30
0.0
 11
105.10714721679688
 21
-107.20248413085938
 31
0.0
  0
LINE
  8
0
 10
105.10714721679688
 20
-107.20248413085938
 30
0.0
 11
105.02737426757812
 21
-107.59292602539062
 31
0.0
  0
LINE
  8
0
 10
105.02737426757812
 20
-107.59292602539062
 30
0.0
 11
105.0
 21
-108.0
 31
0.0
  0
LINE
  8
0
 10
105.0
 20
-108.0
 30
0.0
 11
105.0
 21
-111.45832824707031
 31
0.0
  0
LINE
  8
0
 10
105.0
 20
-111.45832824707031
 30
0.0
 11
105.0
 21
-114.91665649414062
 31
0.0
  0
LINE
  8
0
 10
105.0
 20
-114.91665649414062
 30
0.0
 11
105.0
 21
-118.375
 31
0.0
  0
LINE
  8
0
 10
105.0
 20
-118.375
 30
0.0
 11
105.0
 21
-121.83332824707031
 31
0.0
  0
LINE
  8
0
 10
105.0
 20
-121.83332824707031
 30
0.0
 11
105.0
 21
-125.29167175292969
 31
0.0
  0
LINE
  8
0
 10
105.0
 20
-125.29167175292969
 30
0.0
 11
105.0
 21
-128.75
 31
0.0
  0
LINE
  8
0
 10
105.0
 20
-128.75
 30
0.0
 11
105.0
 21
-132.2083282470703
 31
0.0
  0
LINE
  8
0
 10
105.0
 20
-132.2083282470703
 30
0.0
 11
105.0
 21
-135.6666717529297
 31
0.0
  0
LINE
  8
0
 10
105.0
 20
-135.6666717529297
 30
0.0
 11
105.0
 21
-139.125
 31
0.0
  0
LINE
  8
0
 10
105.0
 20
-139.125
 30
0.0
 11
105.0
 21
-142.58334350585938
 31
0.0
  0
LINE
  8
0
 10
105.0
 20
-142.58334350585938
 30
0.0
 11
105.0
 21
-146.0416717529297
 31
0.0
  0
LINE
  8
0
 10
105.0
 20
-149.5
 30
0.0
 11
105.0
 21
-146.0416717529297
 31
0.0
  0
ENDSEC
  0
EOF
