  0
SECTION
  2
HEADER
  9
$ACADVER
  1
AC1009
  9
$INSBASE
 10
0.0
 20
0.0
 30
0.0
  9
$EXTMIN
 10
0.0
 20
0.0
 30
0.0
  9
$EXTMAX
 10
0.0
 20
0.0
 30
0.0
  0
ENDSEC
  0
SECTION
  2
TABLES
  0
TABLE
  2
VPORT
 70
1
  0
VPORT
  2
*ACTIVE
 70
0
 10
0.0
 20
0.0
 11
1.0
 21
1.0
 12
-5.0
 22
1.0
 13
0.0
 23
0.0
 14
0.1
 24
0.1
 15
0.1
 25
0.1
 16
0.0
 26
0.0
 36
1.0
 17
0.0
 27
0.0
 37
0.0
 40
10.0
 41
1.0
 42
50.0
 43
0.0
 44
0.0
 50
0.0
 51
0.0
 71
0
 72
100
 73
1
 74
1
 75
0
 76
0
 77
0
 78
0
  0
ENDTAB
  0
TABLE
  2
LTYPE
 70
8
  0
LTYPE
  2
CONTINUOUS
 70
0
  3
Solid line
 72
65
 73
0
 40
0.0
  0
LTYPE
  2
DOT
 70
0
  3
. . . . . . .
 72
65
 73
2
 40
0.25
 49
0.0
 49
-0.25
  0
LTYPE
  2
DASHED
 70
0
  3
__ __ __ __ __
 72
65
 73
2
 40
0.8
 49
0.5
 49
-0.3
  0
LTYPE
  2
DASHDOT
 70
0
  3
__ . __ . __ .
 72
65
 73
4
 40
1.0
 49
0.5
 49
-0.25
 49
0.0
 49
-0.25
  0
LTYPE
  2
DIVIDE
 70
0
  3
____ . . ____ . . 
 72
65
 73
6
 40
1.25
 49
0.5
 49
-0.25
 49
0.0
 49
-0.25
 49
0.0
 49
-0.25
  0
LTYPE
  2
BORDER
 70
0
  3
__ __ . __ __ . 
 72
65
 73
6
 40
1.75
 49
0.5
 49
-0.25
 49
0.5
 49
-0.25
 49
0.0
 49
-0.25
  0
LTYPE
  2
HIDDEN
 70
0
  3
__ __ __ __ __
 72
65
 73
2
 40
0.4
 49
0.25
 49
-0.25
  0
LTYPE
  2
CENTER
 70
0
  3
____ _ ____ _ __
 72
65
 73
4
 40
2.0
 49
1.25
 49
-0.25
 49
0.25
 49
-0.25
  0
ENDTAB
  0
TABLE
  2
LAYER
 70
1
  0
LAYER
  2
PYDXF
 70
64
 62
7
  6
continuous
  0
ENDTAB
  0
TABLE
  2
STYLE
 70
1
  0
STYLE
  2
STANDARD
 70
0
 40
0
 41
1.0
 50
0.0
 71
0
 42
1
 3
ARIAL.TTF
 4

  0
ENDTAB
  0
TABLE
  2
VIEW
 70
1
  0
VIEW
  2
BF_TOPVIEW
 70
0
 40
120.0
 10
0.0
 20
0.0
 41
200.0
 11
0.0
 21
0.0
 31
1.0
 12
0.0
 22
0.0
 32
0.0
 42
50.0
 43
0.0
 44
0.0
 50
0.0
 71
0
  0
ENDTAB
  0
ENDSEC
  0
SECTION
  2
BLOCKS
  0
ENDSEC
  0
SECTION
  2
ENTITIES
  0
LINE
  8
0
 10
-319.5226135253906
 20
359.5
 30
0.0
 11
-319.5043640136719
 21
359.7713928222656
 31
0.0
  0
LINE
  8
0
 10
-319.5043640136719
 20
359.7713928222656
 30
0.0
 11
-319.451171875
 21
360.03167724609375
 31
0.0
  0
LINE
  8
0
 10
-319.451171875
 20
360.03167724609375
 30
0.0
 11
-319.3654479980469
 21
360.27850341796875
 31
0.0
  0
LINE
  8
0
 10
-319.3654479980469
 20
360.27850341796875
 30
0.0
 11
-319.24957275390625
 21
360.50946044921875
 31
0.0
  0
LINE
  8
0
 10
-319.24957275390625
 20
360.50946044921875
 30
0.0
 11
-319.10589599609375
 21
360.72216796875
 31
0.0
  0
LINE
  8
0
 10
-319.10589599609375
 20
360.72216796875
 30
0.0
 11
-318.93682861328125
 21
360.91424560546875
 31
0.0
  0
LINE
  8
0
 10
-318.93682861328125
 20
360.91424560546875
 30
0.0
 11
-318.7447509765625
 21
361.08331298828125
 31
0.0
  0
LINE
  8
0
 10
-318.7447509765625
 20
361.08331298828125
 30
0.0
 11
-318.53204345703125
 21
361.22698974609375
 31
0.0
  0
LINE
  8
0
 10
-318.53204345703125
 20
361.22698974609375
 30
0.0
 11
-318.30108642578125
 21
361.3428649902344
 31
0.0
  0
LINE
  8
0
 10
-318.30108642578125
 20
361.3428649902344
 30
0.0
 11
-318.05426025390625
 21
361.4285888671875
 31
0.0
  0
LINE
  8
0
 10
-318.05426025390625
 20
361.4285888671875
 30
0.0
 11
-317.7939758300781
 21
361.4817810058594
 31
0.0
  0
LINE
  8
0
 10
-317.7939758300781
 20
361.4817810058594
 30
0.0
 11
-317.5226135253906
 21
361.5
 31
0.0
  0
LINE
  8
0
 10
-317.5226135253906
 20
361.5
 30
0.0
 11
-308.0111999511719
 21
361.5
 31
0.0
  0
LINE
  8
0
 10
-308.0111999511719
 20
361.5
 30
0.0
 11
-296.42596435546875
 21
361.5
 31
0.0
  0
LINE
  8
0
 10
-296.42596435546875
 20
361.5
 30
0.0
 11
-284.8407287597656
 21
361.5
 31
0.0
  0
LINE
  8
0
 10
-284.8407287597656
 20
361.5
 30
0.0
 11
-273.2554931640625
 21
361.5
 31
0.0
  0
LINE
  8
0
 10
-273.2554931640625
 20
361.5
 30
0.0
 11
-261.6702575683594
 21
361.5
 31
0.0
  0
LINE
  8
0
 10
-261.6702575683594
 20
361.5
 30
0.0
 11
-250.0850067138672
 21
361.5
 31
0.0
  0
LINE
  8
0
 10
-250.0850067138672
 20
361.5
 30
0.0
 11
-238.49966430664062
 21
361.5
 31
0.0
  0
LINE
  8
0
 10
-238.49966430664062
 20
361.5
 30
0.0
 11
-238.228271484375
 21
361.48175048828125
 31
0.0
  0
LINE
  8
0
 10
-238.228271484375
 20
361.48175048828125
 30
0.0
 11
-237.96798706054688
 21
361.4285583496094
 31
0.0
  0
LINE
  8
0
 10
-237.96798706054688
 20
361.4285583496094
 30
0.0
 11
-237.72117614746094
 21
361.34283447265625
 31
0.0
  0
LINE
  8
0
 10
-237.72117614746094
 20
361.34283447265625
 30
0.0
 11
-237.490234375
 21
361.2269592285156
 31
0.0
  0
LINE
  8
0
 10
-237.490234375
 20
361.2269592285156
 30
0.0
 11
-237.27752685546875
 21
361.0832824707031
 31
0.0
  0
LINE
  8
0
 10
-237.27752685546875
 20
361.0832824707031
 30
0.0
 11
-237.08544921875
 21
360.9142150878906
 31
0.0
  0
LINE
  8
0
 10
-237.08544921875
 20
360.9142150878906
 30
0.0
 11
-236.9163818359375
 21
360.7221374511719
 31
0.0
  0
LINE
  8
0
 10
-236.9163818359375
 20
360.7221374511719
 30
0.0
 11
-236.77272033691406
 21
360.5094299316406
 31
0.0
  0
LINE
  8
0
 10
-236.77272033691406
 20
360.5094299316406
 30
0.0
 11
-236.65682983398438
 21
360.2784729003906
 31
0.0
  0
LINE
  8
0
 10
-236.65682983398438
 20
360.2784729003906
 30
0.0
 11
-236.57110595703125
 21
360.0316467285156
 31
0.0
  0
LINE
  8
0
 10
-236.57110595703125
 20
360.0316467285156
 30
0.0
 11
-236.51792907714844
 21
359.7713623046875
 31
0.0
  0
LINE
  8
0
 10
-236.51792907714844
 20
359.7713623046875
 30
0.0
 11
-236.49966430664062
 21
359.5
 31
0.0
  0
LINE
  8
0
 10
-236.49966430664062
 20
359.5
 30
0.0
 11
-236.49966430664062
 21
356.4166564941406
 31
0.0
  0
LINE
  8
0
 10
-236.49966430664062
 20
356.4166564941406
 30
0.0
 11
-236.49966430664062
 21
353.33331298828125
 31
0.0
  0
LINE
  8
0
 10
-236.49966430664062
 20
353.33331298828125
 30
0.0
 11
-236.49966430664062
 21
350.2499694824219
 31
0.0
  0
LINE
  8
0
 10
-236.49966430664062
 20
350.2499694824219
 30
0.0
 11
-236.49966430664062
 21
347.1666259765625
 31
0.0
  0
LINE
  8
0
 10
-236.49966430664062
 20
347.1666259765625
 30
0.0
 11
-236.49966430664062
 21
344.0832824707031
 31
0.0
  0
LINE
  8
0
 10
-236.49966430664062
 20
344.0832824707031
 30
0.0
 11
-236.49966430664062
 21
340.99993896484375
 31
0.0
  0
LINE
  8
0
 10
-236.49966430664062
 20
340.99993896484375
 30
0.0
 11
-236.49966430664062
 21
337.9165954589844
 31
0.0
  0
LINE
  8
0
 10
-236.49966430664062
 20
337.9165954589844
 30
0.0
 11
-236.49966430664062
 21
334.833251953125
 31
0.0
  0
LINE
  8
0
 10
-236.49966430664062
 20
334.833251953125
 30
0.0
 11
-236.49966430664062
 21
331.7499084472656
 31
0.0
  0
LINE
  8
0
 10
-236.49966430664062
 20
331.7499084472656
 30
0.0
 11
-236.49966430664062
 21
328.66656494140625
 31
0.0
  0
LINE
  8
0
 10
-236.49966430664062
 20
328.66656494140625
 30
0.0
 11
-236.49966430664062
 21
325.5832214355469
 31
0.0
  0
LINE
  8
0
 10
-236.49966430664062
 20
325.5832214355469
 30
0.0
 11
-236.49966430664062
 21
322.5
 31
0.0
  0
LINE
  8
0
 10
-236.49966430664062
 20
322.5
 30
0.0
 11
-236.46771240234375
 21
322.02508544921875
 31
0.0
  0
LINE
  8
0
 10
-236.46771240234375
 20
322.02508544921875
 30
0.0
 11
-236.3746337890625
 21
321.569580078125
 31
0.0
  0
LINE
  8
0
 10
-236.3746337890625
 20
321.569580078125
 30
0.0
 11
-236.224609375
 21
321.1376647949219
 31
0.0
  0
LINE
  8
0
 10
-236.224609375
 20
321.1376647949219
 30
0.0
 11
-236.0218048095703
 21
320.7335205078125
 31
0.0
  0
LINE
  8
0
 10
-236.0218048095703
 20
320.7335205078125
 30
0.0
 11
-235.7703857421875
 21
320.3612976074219
 31
0.0
  0
LINE
  8
0
 10
-235.7703857421875
 20
320.3612976074219
 30
0.0
 11
-235.4745330810547
 21
320.0251770019531
 31
0.0
  0
LINE
  8
0
 10
-235.4745330810547
 20
320.0251770019531
 30
0.0
 11
-235.13841247558594
 21
319.72930908203125
 31
0.0
  0
LINE
  8
0
 10
-235.13841247558594
 20
319.72930908203125
 30
0.0
 11
-234.7661895751953
 21
319.4779052734375
 31
0.0
  0
LINE
  8
0
 10
-234.7661895751953
 20
319.4779052734375
 30
0.0
 11
-234.36203002929688
 21
319.27508544921875
 31
0.0
  0
LINE
  8
0
 10
-234.36203002929688
 20
319.27508544921875
 30
0.0
 11
-233.93011474609375
 21
319.12506103515625
 31
0.0
  0
LINE
  8
0
 10
-233.93011474609375
 20
319.12506103515625
 30
0.0
 11
-233.474609375
 21
319.031982421875
 31
0.0
  0
LINE
  8
0
 10
-233.474609375
 20
319.031982421875
 30
0.0
 11
-232.99966430664062
 21
319.0
 31
0.0
  0
LINE
  8
0
 10
-232.99966430664062
 20
319.0
 30
0.0
 11
-221.33299255371094
 21
319.0
 31
0.0
  0
LINE
  8
0
 10
-221.33299255371094
 20
319.0
 30
0.0
 11
-209.66632080078125
 21
319.0
 31
0.0
  0
LINE
  8
0
 10
-209.66632080078125
 20
319.0
 30
0.0
 11
-197.99964904785156
 21
319.0
 31
0.0
  0
LINE
  8
0
 10
-197.99964904785156
 20
319.0
 30
0.0
 11
-186.33297729492188
 21
319.0
 31
0.0
  0
LINE
  8
0
 10
-186.33297729492188
 20
319.0
 30
0.0
 11
-174.6663055419922
 21
319.0
 31
0.0
  0
LINE
  8
0
 10
-174.6663055419922
 20
319.0
 30
0.0
 11
-162.9996337890625
 21
319.0
 31
0.0
  0
LINE
  8
0
 10
-162.9996337890625
 20
319.0
 30
0.0
 11
-151.3329620361328
 21
319.0
 31
0.0
  0
LINE
  8
0
 10
-151.3329620361328
 20
319.0
 30
0.0
 11
-139.66629028320312
 21
319.0
 31
0.0
  0
LINE
  8
0
 10
-139.66629028320312
 20
319.0
 30
0.0
 11
-127.99961853027344
 21
319.0
 31
0.0
  0
LINE
  8
0
 10
-127.99961853027344
 20
319.0
 30
0.0
 11
-116.33294677734375
 21
319.0
 31
0.0
  0
LINE
  8
0
 10
-116.33294677734375
 20
319.0
 30
0.0
 11
-104.6662826538086
 21
319.0
 31
0.0
  0
LINE
  8
0
 10
-104.6662826538086
 20
319.0
 30
0.0
 11
-92.99966430664062
 21
319.0
 31
0.0
  0
LINE
  8
0
 10
-92.99966430664062
 20
319.0
 30
0.0
 11
-92.52473449707031
 21
319.0319519042969
 31
0.0
  0
LINE
  8
0
 10
-92.52473449707031
 20
319.0319519042969
 30
0.0
 11
-92.06922149658203
 21
319.1250305175781
 31
0.0
  0
LINE
  8
0
 10
-92.06922149658203
 20
319.1250305175781
 30
0.0
 11
-91.63729858398438
 21
319.2750549316406
 31
0.0
  0
LINE
  8
0
 10
-91.63729858398438
 20
319.2750549316406
 30
0.0
 11
-91.23313903808594
 21
319.4778747558594
 31
0.0
  0
LINE
  8
0
 10
-91.23313903808594
 20
319.4778747558594
 30
0.0
 11
-90.86090850830078
 21
319.7292785644531
 31
0.0
  0
LINE
  8
0
 10
-90.86090850830078
 20
319.7292785644531
 30
0.0
 11
-90.5247802734375
 21
320.025146484375
 31
0.0
  0
LINE
  8
0
 10
-90.5247802734375
 20
320.025146484375
 30
0.0
 11
-90.22891998291016
 21
320.36126708984375
 31
0.0
  0
LINE
  8
0
 10
-90.22891998291016
 20
320.36126708984375
 30
0.0
 11
-89.97750091552734
 21
320.7334899902344
 31
0.0
  0
LINE
  8
0
 10
-89.97750091552734
 20
320.7334899902344
 30
0.0
 11
-89.77469635009766
 21
321.13763427734375
 31
0.0
  0
LINE
  8
0
 10
-89.77469635009766
 20
321.13763427734375
 30
0.0
 11
-89.62467193603516
 21
321.5695495605469
 31
0.0
  0
LINE
  8
0
 10
-89.62467193603516
 20
321.5695495605469
 30
0.0
 11
-89.53160095214844
 21
322.0250549316406
 31
0.0
  0
LINE
  8
0
 10
-89.53160095214844
 20
322.0250549316406
 30
0.0
 11
-89.49966430664062
 21
322.5
 31
0.0
  0
LINE
  8
0
 10
-89.49966430664062
 20
322.5
 30
0.0
 11
-89.49966430664062
 21
325.5833435058594
 31
0.0
  0
LINE
  8
0
 10
-89.49966430664062
 20
325.5833435058594
 30
0.0
 11
-89.49966430664062
 21
328.66668701171875
 31
0.0
  0
LINE
  8
0
 10
-89.49966430664062
 20
328.66668701171875
 30
0.0
 11
-89.49966430664062
 21
331.7500305175781
 31
0.0
  0
LINE
  8
0
 10
-89.49966430664062
 20
331.7500305175781
 30
0.0
 11
-89.49966430664062
 21
334.8333740234375
 31
0.0
  0
LINE
  8
0
 10
-89.49966430664062
 20
334.8333740234375
 30
0.0
 11
-89.49966430664062
 21
337.9167175292969
 31
0.0
  0
LINE
  8
0
 10
-89.49966430664062
 20
337.9167175292969
 30
0.0
 11
-89.49966430664062
 21
341.00006103515625
 31
0.0
  0
LINE
  8
0
 10
-89.49966430664062
 20
341.00006103515625
 30
0.0
 11
-89.49966430664062
 21
344.0834045410156
 31
0.0
  0
LINE
  8
0
 10
-89.49966430664062
 20
344.0834045410156
 30
0.0
 11
-89.49966430664062
 21
347.166748046875
 31
0.0
  0
LINE
  8
0
 10
-89.49966430664062
 20
347.166748046875
 30
0.0
 11
-89.49966430664062
 21
350.2500915527344
 31
0.0
  0
LINE
  8
0
 10
-89.49966430664062
 20
350.2500915527344
 30
0.0
 11
-89.49966430664062
 21
353.33343505859375
 31
0.0
  0
LINE
  8
0
 10
-89.49966430664062
 20
353.33343505859375
 30
0.0
 11
-89.49966430664062
 21
356.4167785644531
 31
0.0
  0
LINE
  8
0
 10
-89.49966430664062
 20
356.4167785644531
 30
0.0
 11
-89.49966430664062
 21
359.5
 31
0.0
  0
LINE
  8
0
 10
-89.49966430664062
 20
359.5
 30
0.0
 11
-89.48140716552734
 21
359.7713928222656
 31
0.0
  0
LINE
  8
0
 10
-89.48140716552734
 20
359.7713928222656
 30
0.0
 11
-89.42822265625
 21
360.03167724609375
 31
0.0
  0
LINE
  8
0
 10
-89.42822265625
 20
360.03167724609375
 30
0.0
 11
-89.34249114990234
 21
360.27850341796875
 31
0.0
  0
LINE
  8
0
 10
-89.34249114990234
 20
360.27850341796875
 30
0.0
 11
-89.22660064697266
 21
360.50946044921875
 31
0.0
  0
LINE
  8
0
 10
-89.22660064697266
 20
360.50946044921875
 30
0.0
 11
-89.08293151855469
 21
360.72216796875
 31
0.0
  0
LINE
  8
0
 10
-89.08293151855469
 20
360.72216796875
 30
0.0
 11
-88.91387176513672
 21
360.91424560546875
 31
0.0
  0
LINE
  8
0
 10
-88.91387176513672
 20
360.91424560546875
 30
0.0
 11
-88.7218017578125
 21
361.08331298828125
 31
0.0
  0
LINE
  8
0
 10
-88.7218017578125
 20
361.08331298828125
 30
0.0
 11
-88.50910186767578
 21
361.22698974609375
 31
0.0
  0
LINE
  8
0
 10
-88.50910186767578
 20
361.22698974609375
 30
0.0
 11
-88.27815246582031
 21
361.3428649902344
 31
0.0
  0
LINE
  8
0
 10
-88.27815246582031
 20
361.3428649902344
 30
0.0
 11
-88.03134155273438
 21
361.4285888671875
 31
0.0
  0
LINE
  8
0
 10
-88.03134155273438
 20
361.4285888671875
 30
0.0
 11
-87.77104949951172
 21
361.4817810058594
 31
0.0
  0
LINE
  8
0
 10
-87.77104949951172
 20
361.4817810058594
 30
0.0
 11
-87.49966430664062
 21
361.5
 31
0.0
  0
LINE
  8
0
 10
-87.49966430664062
 20
361.5
 30
0.0
 11
-75.91824340820312
 21
361.5
 31
0.0
  0
LINE
  8
0
 10
-75.91824340820312
 20
361.5
 30
0.0
 11
-64.33682250976562
 21
361.5
 31
0.0
  0
LINE
  8
0
 10
-64.33682250976562
 20
361.5
 30
0.0
 11
-52.755401611328125
 21
361.5
 31
0.0
  0
LINE
  8
0
 10
-52.755401611328125
 20
361.5
 30
0.0
 11
-41.173980712890625
 21
361.5
 31
0.0
  0
LINE
  8
0
 10
-41.173980712890625
 20
361.5
 30
0.0
 11
-29.592559814453125
 21
361.5
 31
0.0
  0
LINE
  8
0
 10
-29.592559814453125
 20
361.5
 30
0.0
 11
-18.011138916015625
 21
361.5
 31
0.0
  0
LINE
  8
0
 10
-18.011138916015625
 20
361.5
 30
0.0
 11
-8.251224517822266
 21
361.48175048828125
 31
0.0
  0
LINE
  8
0
 10
-8.251224517822266
 20
361.48175048828125
 30
0.0
 11
-7.990932464599609
 21
361.4285583496094
 31
0.0
  0
LINE
  8
0
 10
-7.990932464599609
 20
361.4285583496094
 30
0.0
 11
-7.744121551513672
 21
361.34283447265625
 31
0.0
  0
LINE
  8
0
 10
-7.744121551513672
 20
361.34283447265625
 30
0.0
 11
-7.513172149658203
 21
361.2269592285156
 31
0.0
  0
LINE
  8
0
 10
-7.513172149658203
 20
361.2269592285156
 30
0.0
 11
-7.300468444824219
 21
361.0832824707031
 31
0.0
  0
LINE
  8
0
 10
-7.300468444824219
 20
361.0832824707031
 30
0.0
 11
-7.108394622802734
 21
360.9142150878906
 31
0.0
  0
LINE
  8
0
 10
-7.108394622802734
 20
360.9142150878906
 30
0.0
 11
-6.939334869384766
 21
360.7221374511719
 31
0.0
  0
LINE
  8
0
 10
-6.939334869384766
 20
360.7221374511719
 30
0.0
 11
-6.7956695556640625
 21
360.5094299316406
 31
0.0
  0
LINE
  8
0
 10
-6.7956695556640625
 20
360.5094299316406
 30
0.0
 11
-6.679779052734375
 21
360.2784729003906
 31
0.0
  0
LINE
  8
0
 10
-6.679779052734375
 20
360.2784729003906
 30
0.0
 11
-6.594051361083984
 21
360.0316467285156
 31
0.0
  0
LINE
  8
0
 10
-6.594051361083984
 20
360.0316467285156
 30
0.0
 11
-6.540866851806641
 21
359.7713623046875
 31
0.0
  0
LINE
  8
0
 10
-6.540866851806641
 20
359.7713623046875
 30
0.0
 11
-6.522613525390625
 21
359.5
 31
0.0
  0
LINE
  8
0
 10
-6.522613525390625
 20
359.5
 30
0.0
 11
-6.522613525390625
 21
320.4166564941406
 31
0.0
  0
LINE
  8
0
 10
-6.522613525390625
 20
320.4166564941406
 30
0.0
 11
-6.522613525390625
 21
281.33331298828125
 31
0.0
  0
LINE
  8
0
 10
-6.522613525390625
 20
281.33331298828125
 30
0.0
 11
-6.522613525390625
 21
242.24996948242188
 31
0.0
  0
LINE
  8
0
 10
-6.522613525390625
 20
242.24996948242188
 30
0.0
 11
-6.522613525390625
 21
203.1666259765625
 31
0.0
  0
LINE
  8
0
 10
-6.522613525390625
 20
203.1666259765625
 30
0.0
 11
-6.522613525390625
 21
164.08328247070312
 31
0.0
  0
LINE
  8
0
 10
-6.522613525390625
 20
164.08328247070312
 30
0.0
 11
-6.522613525390625
 21
124.99994659423828
 31
0.0
  0
LINE
  8
0
 10
-6.522613525390625
 20
124.99994659423828
 30
0.0
 11
-6.522613525390625
 21
85.91661071777344
 31
0.0
  0
LINE
  8
0
 10
-6.522613525390625
 20
85.91661071777344
 30
0.0
 11
-6.522613525390625
 21
46.833274841308594
 31
0.0
  0
LINE
  8
0
 10
-6.522613525390625
 20
46.833274841308594
 30
0.0
 11
-6.522613525390625
 21
7.74993896484375
 31
0.0
  0
LINE
  8
0
 10
-6.522613525390625
 20
7.74993896484375
 30
0.0
 11
-6.522613525390625
 21
-31.333396911621094
 31
0.0
  0
LINE
  8
0
 10
-6.522613525390625
 20
-31.333396911621094
 30
0.0
 11
-6.522613525390625
 21
-70.41673278808594
 31
0.0
  0
LINE
  8
0
 10
-6.522613525390625
 20
-70.41673278808594
 30
0.0
 11
-6.522613525390625
 21
-109.5
 31
0.0
  0
LINE
  8
0
 10
-6.522613525390625
 20
-109.5
 30
0.0
 11
-6.540870666503906
 21
-109.7713851928711
 31
0.0
  0
LINE
  8
0
 10
-6.540870666503906
 20
-109.7713851928711
 30
0.0
 11
-6.59405517578125
 21
-110.03167724609375
 31
0.0
  0
LINE
  8
0
 10
-6.59405517578125
 20
-110.03167724609375
 30
0.0
 11
-6.679782867431641
 21
-110.27848815917969
 31
0.0
  0
LINE
  8
0
 10
-6.679782867431641
 20
-110.27848815917969
 30
0.0
 11
-6.795673370361328
 21
-110.50943756103516
 31
0.0
  0
LINE
  8
0
 10
-6.795673370361328
 20
-110.50943756103516
 30
0.0
 11
-6.939338684082031
 21
-110.72213745117188
 31
0.0
  0
LINE
  8
0
 10
-6.939338684082031
 20
-110.72213745117188
 30
0.0
 11
-7.1083984375
 21
-110.9142074584961
 31
0.0
  0
LINE
  8
0
 10
-7.1083984375
 20
-110.9142074584961
 30
0.0
 11
-7.300472259521484
 21
-111.08326721191406
 31
0.0
  0
LINE
  8
0
 10
-7.300472259521484
 20
-111.08326721191406
 30
0.0
 11
-7.513175964355469
 21
-111.22693634033203
 31
0.0
  0
LINE
  8
0
 10
-7.513175964355469
 20
-111.22693634033203
 30
0.0
 11
-7.7441253662109375
 21
-111.34282684326172
 31
0.0
  0
LINE
  8
0
 10
-7.7441253662109375
 20
-111.34282684326172
 30
0.0
 11
-7.990936279296875
 21
-111.42855834960938
 31
0.0
  0
LINE
  8
0
 10
-7.990936279296875
 20
-111.42855834960938
 30
0.0
 11
-8.251228332519531
 21
-111.48174285888672
 31
0.0
  0
LINE
  8
0
 10
-8.251228332519531
 20
-111.48174285888672
 30
0.0
 11
-8.522613525390625
 21
-111.5
 31
0.0
  0
LINE
  8
0
 10
-8.522613525390625
 20
-111.5
 30
0.0
 11
-20.022613525390625
 21
-111.5
 31
0.0
  0
LINE
  8
0
 10
-20.022613525390625
 20
-111.5
 30
0.0
 11
-55.772613525390625
 21
-111.5
 31
0.0
  0
LINE
  8
0
 10
-55.772613525390625
 20
-111.5
 30
0.0
 11
-91.52261352539062
 21
-111.5
 31
0.0
  0
LINE
  8
0
 10
-91.52261352539062
 20
-111.5
 30
0.0
 11
-127.27261352539062
 21
-111.5
 31
0.0
  0
LINE
  8
0
 10
-127.27261352539062
 20
-111.5
 30
0.0
 11
-163.02261352539062
 21
-111.5
 31
0.0
  0
LINE
  8
0
 10
-163.02261352539062
 20
-111.5
 30
0.0
 11
-198.77261352539062
 21
-111.5
 31
0.0
  0
LINE
  8
0
 10
-198.77261352539062
 20
-111.5
 30
0.0
 11
-234.52261352539062
 21
-111.5
 31
0.0
  0
LINE
  8
0
 10
-234.52261352539062
 20
-111.5
 30
0.0
 11
-270.2726135253906
 21
-111.5
 31
0.0
  0
LINE
  8
0
 10
-270.2726135253906
 20
-111.5
 30
0.0
 11
-306.0226135253906
 21
-111.5
 31
0.0
  0
LINE
  8
0
 10
-306.0226135253906
 20
-111.5
 30
0.0
 11
-317.5226135253906
 21
-111.5
 31
0.0
  0
LINE
  8
0
 10
-317.5226135253906
 20
-111.5
 30
0.0
 11
-317.79400634765625
 21
-111.48174285888672
 31
0.0
  0
LINE
  8
0
 10
-317.79400634765625
 20
-111.48174285888672
 30
0.0
 11
-318.0542907714844
 21
-111.42855834960938
 31
0.0
  0
LINE
  8
0
 10
-318.0542907714844
 20
-111.42855834960938
 30
0.0
 11
-318.3011169433594
 21
-111.34282684326172
 31
0.0
  0
LINE
  8
0
 10
-318.3011169433594
 20
-111.34282684326172
 30
0.0
 11
-318.5320739746094
 21
-111.22693634033203
 31
0.0
  0
LINE
  8
0
 10
-318.5320739746094
 20
-111.22693634033203
 30
0.0
 11
-318.7447814941406
 21
-111.08326721191406
 31
0.0
  0
LINE
  8
0
 10
-318.7447814941406
 20
-111.08326721191406
 30
0.0
 11
-318.9368591308594
 21
-110.9142074584961
 31
0.0
  0
LINE
  8
0
 10
-318.9368591308594
 20
-110.9142074584961
 30
0.0
 11
-319.1059265136719
 21
-110.72213745117188
 31
0.0
  0
LINE
  8
0
 10
-319.1059265136719
 20
-110.72213745117188
 30
0.0
 11
-319.2496032714844
 21
-110.50943756103516
 31
0.0
  0
LINE
  8
0
 10
-319.2496032714844
 20
-110.50943756103516
 30
0.0
 11
-319.365478515625
 21
-110.27848815917969
 31
0.0
  0
LINE
  8
0
 10
-319.365478515625
 20
-110.27848815917969
 30
0.0
 11
-319.4512023925781
 21
-110.03167724609375
 31
0.0
  0
LINE
  8
0
 10
-319.4512023925781
 20
-110.03167724609375
 30
0.0
 11
-319.50439453125
 21
-109.7713851928711
 31
0.0
  0
LINE
  8
0
 10
-319.50439453125
 20
-109.7713851928711
 30
0.0
 11
-319.5226135253906
 21
-109.5
 31
0.0
  0
LINE
  8
0
 10
-319.5226135253906
 20
-109.5
 30
0.0
 11
-319.5226135253906
 21
-70.41666412353516
 31
0.0
  0
LINE
  8
0
 10
-319.5226135253906
 20
-70.41666412353516
 30
0.0
 11
-319.5226135253906
 21
-31.333328247070312
 31
0.0
  0
LINE
  8
0
 10
-319.5226135253906
 20
-31.333328247070312
 30
0.0
 11
-319.5226135253906
 21
7.750007629394531
 31
0.0
  0
LINE
  8
0
 10
-319.5226135253906
 20
7.750007629394531
 30
0.0
 11
-319.5226135253906
 21
46.833343505859375
 31
0.0
  0
LINE
  8
0
 10
-319.5226135253906
 20
46.833343505859375
 30
0.0
 11
-319.5226135253906
 21
85.91667938232422
 31
0.0
  0
LINE
  8
0
 10
-319.5226135253906
 20
85.91667938232422
 30
0.0
 11
-319.5226135253906
 21
125.00001525878906
 31
0.0
  0
LINE
  8
0
 10
-319.5226135253906
 20
125.00001525878906
 30
0.0
 11
-319.5226135253906
 21
164.08334350585938
 31
0.0
  0
LINE
  8
0
 10
-319.5226135253906
 20
164.08334350585938
 30
0.0
 11
-319.5226135253906
 21
203.16668701171875
 31
0.0
  0
LINE
  8
0
 10
-319.5226135253906
 20
203.16668701171875
 30
0.0
 11
-319.5226135253906
 21
242.25003051757812
 31
0.0
  0
LINE
  8
0
 10
-319.5226135253906
 20
242.25003051757812
 30
0.0
 11
-319.5226135253906
 21
281.3333740234375
 31
0.0
  0
LINE
  8
0
 10
-319.5226135253906
 20
281.3333740234375
 30
0.0
 11
-319.5226135253906
 21
320.4167175292969
 31
0.0
  0
LINE
  8
0
 10
-319.5226135253906
 20
359.5
 30
0.0
 11
-319.5226135253906
 21
320.4167175292969
 31
0.0
  0
ENDSEC
  0
EOF
