  0
SECTION
  2
HEADER
  9
$ACADVER
  1
AC1009
  9
$INSBASE
 10
0.0
 20
0.0
 30
0.0
  9
$EXTMIN
 10
0.0
 20
0.0
 30
0.0
  9
$EXTMAX
 10
0.0
 20
0.0
 30
0.0
  0
ENDSEC
  0
SECTION
  2
TABLES
  0
TABLE
  2
VPORT
 70
1
  0
VPORT
  2
*ACTIVE
 70
0
 10
0.0
 20
0.0
 11
1.0
 21
1.0
 12
-5.0
 22
1.0
 13
0.0
 23
0.0
 14
0.1
 24
0.1
 15
0.1
 25
0.1
 16
0.0
 26
0.0
 36
1.0
 17
0.0
 27
0.0
 37
0.0
 40
10.0
 41
1.0
 42
50.0
 43
0.0
 44
0.0
 50
0.0
 51
0.0
 71
0
 72
100
 73
1
 74
1
 75
0
 76
0
 77
0
 78
0
  0
ENDTAB
  0
TABLE
  2
LTYPE
 70
8
  0
LTYPE
  2
CONTINUOUS
 70
0
  3
Solid line
 72
65
 73
0
 40
0.0
  0
LTYPE
  2
DOT
 70
0
  3
. . . . . . .
 72
65
 73
2
 40
0.25
 49
0.0
 49
-0.25
  0
LTYPE
  2
DASHED
 70
0
  3
__ __ __ __ __
 72
65
 73
2
 40
0.8
 49
0.5
 49
-0.3
  0
LTYPE
  2
DASHDOT
 70
0
  3
__ . __ . __ .
 72
65
 73
4
 40
1.0
 49
0.5
 49
-0.25
 49
0.0
 49
-0.25
  0
LTYPE
  2
DIVIDE
 70
0
  3
____ . . ____ . . 
 72
65
 73
6
 40
1.25
 49
0.5
 49
-0.25
 49
0.0
 49
-0.25
 49
0.0
 49
-0.25
  0
LTYPE
  2
BORDER
 70
0
  3
__ __ . __ __ . 
 72
65
 73
6
 40
1.75
 49
0.5
 49
-0.25
 49
0.5
 49
-0.25
 49
0.0
 49
-0.25
  0
LTYPE
  2
HIDDEN
 70
0
  3
__ __ __ __ __
 72
65
 73
2
 40
0.4
 49
0.25
 49
-0.25
  0
LTYPE
  2
CENTER
 70
0
  3
____ _ ____ _ __
 72
65
 73
4
 40
2.0
 49
1.25
 49
-0.25
 49
0.25
 49
-0.25
  0
ENDTAB
  0
TABLE
  2
LAYER
 70
1
  0
LAYER
  2
PYDXF
 70
64
 62
7
  6
continuous
  0
ENDTAB
  0
TABLE
  2
STYLE
 70
1
  0
STYLE
  2
STANDARD
 70
0
 40
0
 41
1.0
 50
0.0
 71
0
 42
1
 3
ARIAL.TTF
 4

  0
ENDTAB
  0
TABLE
  2
VIEW
 70
1
  0
VIEW
  2
BF_TOPVIEW
 70
0
 40
120.0
 10
0.0
 20
0.0
 41
200.0
 11
0.0
 21
0.0
 31
1.0
 12
0.0
 22
0.0
 32
0.0
 42
50.0
 43
0.0
 44
0.0
 50
0.0
 71
0
  0
ENDTAB
  0
ENDSEC
  0
SECTION
  2
BLOCKS
  0
ENDSEC
  0
SECTION
  2
ENTITIES
  0
LINE
  8
0
 10
149.60000610351562
 20
115.00042724609375
 30
-61.99981689453125
 11
149.60000610351562
 21
87.31285095214844
 31
-61.99981689453125
  0
LINE
  8
0
 10
149.60000610351562
 20
87.31285095214844
 30
-61.99981689453125
 11
149.60000610351562
 21
64.00027465820312
 31
-61.99981689453125
  0
LINE
  8
0
 10
149.60000610351562
 20
64.00027465820312
 30
-61.99981689453125
 11
149.60000610351562
 21
44.18769836425781
 31
-61.99981689453125
  0
LINE
  8
0
 10
149.60000610351562
 20
44.18769836425781
 30
-61.99981689453125
 11
149.60000610351562
 21
27.0001220703125
 31
-61.99981689453125
  0
LINE
  8
0
 10
149.60000610351562
 20
27.0001220703125
 30
-61.99981689453125
 11
149.60000610351562
 21
11.562545776367188
 31
-61.99981689453125
  0
LINE
  8
0
 10
149.60000610351562
 20
11.562545776367188
 30
-61.99981689453125
 11
149.60000610351562
 21
-3.000030517578125
 31
-61.99981689453125
  0
LINE
  8
0
 10
149.60000610351562
 20
-3.000030517578125
 30
-61.99981689453125
 11
149.60000610351562
 21
-17.562606811523438
 31
-61.99981689453125
  0
LINE
  8
0
 10
149.60000610351562
 20
-17.562606811523438
 30
-61.99981689453125
 11
149.60000610351562
 21
-33.00018310546875
 31
-61.99981689453125
  0
LINE
  8
0
 10
149.60000610351562
 20
-33.00018310546875
 30
-61.99981689453125
 11
149.60000610351562
 21
-50.18775939941406
 31
-61.99981689453125
  0
LINE
  8
0
 10
149.60000610351562
 20
-50.18775939941406
 30
-61.99981689453125
 11
149.60000610351562
 21
-70.00033569335938
 31
-61.99981689453125
  0
LINE
  8
0
 10
149.60000610351562
 20
-70.00033569335938
 30
-61.99981689453125
 11
149.60000610351562
 21
-93.31289672851562
 31
-61.99981689453125
  0
LINE
  8
0
 10
149.60000610351562
 20
-93.31289672851562
 30
-61.99981689453125
 11
149.59994506835938
 21
-121.00042724609375
 31
-61.99981689453125
  0
LINE
  8
0
 10
149.59994506835938
 20
-121.00042724609375
 30
-61.99981689453125
 11
149.58169555664062
 21
-121.27182006835938
 31
-61.99981689453125
  0
LINE
  8
0
 10
149.58169555664062
 20
-121.27182006835938
 30
-61.99981689453125
 11
149.52850341796875
 21
-121.5321044921875
 31
-61.99981689453125
  0
LINE
  8
0
 10
149.52850341796875
 20
-121.5321044921875
 30
-61.99981689453125
 11
149.44277954101562
 21
-121.7789306640625
 31
-61.99981689453125
  0
LINE
  8
0
 10
149.44277954101562
 20
-121.7789306640625
 30
-61.99981689453125
 11
149.326904296875
 21
-122.0098876953125
 31
-61.99981689453125
  0
LINE
  8
0
 10
149.326904296875
 20
-122.0098876953125
 30
-61.99981689453125
 11
149.18325805664062
 21
-122.22259521484375
 31
-61.99981689453125
  0
LINE
  8
0
 10
149.18325805664062
 20
-122.22259521484375
 30
-61.99981689453125
 11
149.01419067382812
 21
-122.4146728515625
 31
-61.99981689453125
  0
LINE
  8
0
 10
149.01419067382812
 20
-122.4146728515625
 30
-61.99981689453125
 11
148.82211303710938
 21
-122.583740234375
 31
-61.99981689453125
  0
LINE
  8
0
 10
148.82211303710938
 20
-122.583740234375
 30
-61.99981689453125
 11
148.60940551757812
 21
-122.7274169921875
 31
-61.99981689453125
  0
LINE
  8
0
 10
148.60940551757812
 20
-122.7274169921875
 30
-61.99981689453125
 11
148.37844848632812
 21
-122.84329223632812
 31
-61.99981689453125
  0
LINE
  8
0
 10
148.37844848632812
 20
-122.84329223632812
 30
-61.99981689453125
 11
148.13165283203125
 21
-122.92901611328125
 31
-61.99981689453125
  0
LINE
  8
0
 10
148.13165283203125
 20
-122.92901611328125
 30
-61.99981689453125
 11
147.87136840820312
 21
-122.98220825195312
 31
-61.99981689453125
  0
LINE
  8
0
 10
147.87136840820312
 20
-122.98220825195312
 30
-61.99981689453125
 11
147.60000610351562
 21
-123.00042724609375
 31
-61.99981689453125
  0
LINE
  8
0
 10
147.60000610351562
 20
-123.00042724609375
 30
-61.99981689453125
 11
147.50836181640625
 21
-123.00042724609375
 31
-61.99981689453125
  0
LINE
  8
0
 10
147.50836181640625
 20
-123.00042724609375
 30
-61.99981689453125
 11
147.41671752929688
 21
-123.00042724609375
 31
-61.99981689453125
  0
LINE
  8
0
 10
147.41671752929688
 20
-123.00042724609375
 30
-61.99981689453125
 11
147.3250732421875
 21
-123.00042724609375
 31
-61.99981689453125
  0
LINE
  8
0
 10
147.3250732421875
 20
-123.00042724609375
 30
-61.99981689453125
 11
147.23342895507812
 21
-123.00042724609375
 31
-61.99981689453125
  0
LINE
  8
0
 10
147.23342895507812
 20
-123.00042724609375
 30
-61.99981689453125
 11
147.14178466796875
 21
-123.00042724609375
 31
-61.99981689453125
  0
LINE
  8
0
 10
147.14178466796875
 20
-123.00042724609375
 30
-61.99981689453125
 11
147.05014038085938
 21
-123.00042724609375
 31
-61.99981689453125
  0
LINE
  8
0
 10
147.05014038085938
 20
-123.00042724609375
 30
-61.99981689453125
 11
146.95849609375
 21
-123.00042724609375
 31
-61.99981689453125
  0
LINE
  8
0
 10
146.95849609375
 20
-123.00042724609375
 30
-61.99981689453125
 11
146.86685180664062
 21
-123.00042724609375
 31
-61.99981689453125
  0
LINE
  8
0
 10
146.86685180664062
 20
-123.00042724609375
 30
-61.99981689453125
 11
146.77520751953125
 21
-123.00042724609375
 31
-61.99981689453125
  0
LINE
  8
0
 10
146.77520751953125
 20
-123.00042724609375
 30
-61.99981689453125
 11
146.68356323242188
 21
-123.00042724609375
 31
-61.99981689453125
  0
LINE
  8
0
 10
146.68356323242188
 20
-123.00042724609375
 30
-61.99981689453125
 11
146.5919189453125
 21
-123.00042724609375
 31
-61.99981689453125
  0
LINE
  8
0
 10
146.5919189453125
 20
-123.00042724609375
 30
-61.99981689453125
 11
146.50027465820312
 21
-123.00042724609375
 31
-61.99981689453125
  0
LINE
  8
0
 10
146.50027465820312
 20
-123.00042724609375
 30
-61.99981689453125
 11
143.58285522460938
 21
-123.19668579101562
 31
-61.99981689453125
  0
LINE
  8
0
 10
143.58285522460938
 20
-123.19668579101562
 30
-61.99981689453125
 11
140.78472900390625
 21
-123.7684326171875
 31
-61.99981689453125
  0
LINE
  8
0
 10
140.78472900390625
 20
-123.7684326171875
 30
-61.99981689453125
 11
138.13150024414062
 21
-124.69000244140625
 31
-61.99981689453125
  0
LINE
  8
0
 10
138.13150024414062
 20
-124.69000244140625
 30
-61.99981689453125
 11
135.6488037109375
 21
-125.93582153320312
 31
-61.99981689453125
  0
LINE
  8
0
 10
135.6488037109375
 20
-125.93582153320312
 30
-61.99981689453125
 11
133.36224365234375
 21
-127.480224609375
 31
-61.99981689453125
  0
LINE
  8
0
 10
133.36224365234375
 20
-127.480224609375
 30
-61.99981689453125
 11
131.29745483398438
 21
-129.29763793945312
 31
-61.99981689453125
  0
LINE
  8
0
 10
131.29745483398438
 20
-129.29763793945312
 30
-61.99981689453125
 11
129.48004150390625
 21
-131.3624267578125
 31
-61.99981689453125
  0
LINE
  8
0
 10
129.48004150390625
 20
-131.3624267578125
 30
-61.99981689453125
 11
127.93563842773438
 21
-133.64898681640625
 31
-61.99981689453125
  0
LINE
  8
0
 10
127.93563842773438
 20
-133.64898681640625
 30
-61.99981689453125
 11
126.6898193359375
 21
-136.13168334960938
 31
-61.99981689453125
  0
LINE
  8
0
 10
126.6898193359375
 20
-136.13168334960938
 30
-61.99981689453125
 11
125.76824951171875
 21
-138.784912109375
 31
-61.99981689453125
  0
LINE
  8
0
 10
125.76824951171875
 20
-138.784912109375
 30
-61.99981689453125
 11
125.19650268554688
 21
-141.58303833007812
 31
-61.99981689453125
  0
LINE
  8
0
 10
125.19650268554688
 20
-141.58303833007812
 30
-61.99981689453125
 11
125.00027465820312
 21
-144.50042724609375
 31
-61.99981689453125
  0
LINE
  8
0
 10
125.00027465820312
 20
-144.50042724609375
 30
-61.99981689453125
 11
125.00027465820312
 21
-144.75872802734375
 31
-61.99981689453125
  0
LINE
  8
0
 10
125.00027465820312
 20
-144.75872802734375
 30
-61.99981689453125
 11
125.00027465820312
 21
-145.01702880859375
 31
-61.99981689453125
  0
LINE
  8
0
 10
125.00027465820312
 20
-145.01702880859375
 30
-61.99981689453125
 11
125.00027465820312
 21
-145.27532958984375
 31
-61.99981689453125
  0
LINE
  8
0
 10
125.00027465820312
 20
-145.27532958984375
 30
-61.99981689453125
 11
125.00027465820312
 21
-145.53363037109375
 31
-61.99981689453125
  0
LINE
  8
0
 10
125.00027465820312
 20
-145.53363037109375
 30
-61.99981689453125
 11
125.00027465820312
 21
-145.79193115234375
 31
-61.99981689453125
  0
LINE
  8
0
 10
125.00027465820312
 20
-145.79193115234375
 30
-61.99981689453125
 11
125.00027465820312
 21
-146.05023193359375
 31
-61.99981689453125
  0
LINE
  8
0
 10
125.00027465820312
 20
-146.05023193359375
 30
-61.99981689453125
 11
125.00027465820312
 21
-146.30853271484375
 31
-61.99981689453125
  0
LINE
  8
0
 10
125.00027465820312
 20
-146.30853271484375
 30
-61.99981689453125
 11
125.00027465820312
 21
-146.56683349609375
 31
-61.99981689453125
  0
LINE
  8
0
 10
125.00027465820312
 20
-146.56683349609375
 30
-61.99981689453125
 11
125.00027465820312
 21
-146.82513427734375
 31
-61.99981689453125
  0
LINE
  8
0
 10
125.00027465820312
 20
-146.82513427734375
 30
-61.99981689453125
 11
125.00027465820312
 21
-147.08343505859375
 31
-61.99981689453125
  0
LINE
  8
0
 10
125.00027465820312
 20
-147.08343505859375
 30
-61.99981689453125
 11
125.00027465820312
 21
-147.34173583984375
 31
-61.99981689453125
  0
LINE
  8
0
 10
125.00027465820312
 20
-147.34173583984375
 30
-61.99981689453125
 11
125.00027465820312
 21
-147.60000610351562
 31
-61.99981689453125
  0
LINE
  8
0
 10
125.00027465820312
 20
-147.60000610351562
 30
-61.99981689453125
 11
124.98202514648438
 21
-147.87139892578125
 31
-61.99981689453125
  0
LINE
  8
0
 10
124.98202514648438
 20
-147.87139892578125
 30
-61.99981689453125
 11
124.9288330078125
 21
-148.13168334960938
 31
-61.99981689453125
  0
LINE
  8
0
 10
124.9288330078125
 20
-148.13168334960938
 30
-61.99981689453125
 11
124.84310913085938
 21
-148.37850952148438
 31
-61.99981689453125
  0
LINE
  8
0
 10
124.84310913085938
 20
-148.37850952148438
 30
-61.99981689453125
 11
124.72723388671875
 21
-148.60946655273438
 31
-61.99981689453125
  0
LINE
  8
0
 10
124.72723388671875
 20
-148.60946655273438
 30
-61.99981689453125
 11
124.58355712890625
 21
-148.82217407226562
 31
-61.99981689453125
  0
LINE
  8
0
 10
124.58355712890625
 20
-148.82217407226562
 30
-61.99981689453125
 11
124.41448974609375
 21
-149.01425170898438
 31
-61.99981689453125
  0
LINE
  8
0
 10
124.41448974609375
 20
-149.01425170898438
 30
-61.99981689453125
 11
124.222412109375
 21
-149.18331909179688
 31
-61.99981689453125
  0
LINE
  8
0
 10
124.222412109375
 20
-149.18331909179688
 30
-61.99981689453125
 11
124.00970458984375
 21
-149.32699584960938
 31
-61.99981689453125
  0
LINE
  8
0
 10
124.00970458984375
 20
-149.32699584960938
 30
-61.99981689453125
 11
123.77874755859375
 21
-149.44287109375
 31
-61.99981689453125
  0
LINE
  8
0
 10
123.77874755859375
 20
-149.44287109375
 30
-61.99981689453125
 11
123.53192138671875
 21
-149.52859497070312
 31
-61.99981689453125
  0
LINE
  8
0
 10
123.53192138671875
 20
-149.52859497070312
 30
-61.99981689453125
 11
123.27163696289062
 21
-149.581787109375
 31
-61.99981689453125
  0
LINE
  8
0
 10
123.27163696289062
 20
-149.581787109375
 30
-61.99981689453125
 11
123.00027465820312
 21
-149.60000610351562
 31
-61.99981689453125
  0
LINE
  8
0
 10
123.00027465820312
 20
-149.60000610351562
 30
-61.99981689453125
 11
94.86141967773438
 21
-149.60000610351562
 31
-61.99981689453125
  0
LINE
  8
0
 10
94.86141967773438
 20
-149.60000610351562
 30
-61.99981689453125
 11
70.88925170898438
 21
-149.60000610351562
 31
-61.99981689453125
  0
LINE
  8
0
 10
70.88925170898438
 20
-149.60000610351562
 30
-61.99981689453125
 11
50.25041198730469
 21
-149.60000610351562
 31
-61.99981689453125
  0
LINE
  8
0
 10
50.25041198730469
 20
-149.60000610351562
 30
-61.99981689453125
 11
32.111572265625
 21
-149.60000610351562
 31
-61.99981689453125
  0
LINE
  8
0
 10
32.111572265625
 20
-149.60000610351562
 30
-61.99981689453125
 11
15.639404296875
 21
-149.60000610351562
 31
-61.99981689453125
  0
LINE
  8
0
 10
15.639404296875
 20
-149.60000610351562
 30
-61.99981689453125
 11
0.0005645751953125
 21
-149.60000610351562
 31
-61.99981689453125
  0
LINE
  8
0
 10
0.0005645751953125
 20
-149.60000610351562
 30
-61.99981689453125
 11
-15.638275146484375
 21
-149.60000610351562
 31
-61.99981689453125
  0
LINE
  8
0
 10
-15.638275146484375
 20
-149.60000610351562
 30
-61.99981689453125
 11
-32.110443115234375
 21
-149.60000610351562
 31
-61.99981689453125
  0
LINE
  8
0
 10
-32.110443115234375
 20
-149.60000610351562
 30
-61.99981689453125
 11
-50.24928283691406
 21
-149.60000610351562
 31
-61.99981689453125
  0
LINE
  8
0
 10
-50.24928283691406
 20
-149.60000610351562
 30
-61.99981689453125
 11
-70.88812255859375
 21
-149.60000610351562
 31
-61.99981689453125
  0
LINE
  8
0
 10
-70.88812255859375
 20
-149.60000610351562
 30
-61.99981689453125
 11
-94.86029052734375
 21
-149.60000610351562
 31
-61.99981689453125
  0
LINE
  8
0
 10
-94.86029052734375
 20
-149.60000610351562
 30
-61.99981689453125
 11
-122.99913787841797
 21
-149.60000610351562
 31
-61.99981689453125
  0
LINE
  8
0
 10
-122.99913787841797
 20
-149.60000610351562
 30
-61.99981689453125
 11
-123.2705307006836
 21
-149.58175659179688
 31
-61.99981689453125
  0
LINE
  8
0
 10
-123.2705307006836
 20
-149.58175659179688
 30
-61.99981689453125
 11
-123.53082275390625
 21
-149.528564453125
 31
-61.99981689453125
  0
LINE
  8
0
 10
-123.53082275390625
 20
-149.528564453125
 30
-61.99981689453125
 11
-123.77763366699219
 21
-149.44284057617188
 31
-61.99981689453125
  0
LINE
  8
0
 10
-123.77763366699219
 20
-149.44284057617188
 30
-61.99981689453125
 11
-124.00858306884766
 21
-149.32696533203125
 31
-61.99981689453125
  0
LINE
  8
0
 10
-124.00858306884766
 20
-149.32696533203125
 30
-61.99981689453125
 11
-124.22128295898438
 21
-149.18328857421875
 31
-61.99981689453125
  0
LINE
  8
0
 10
-124.22128295898438
 20
-149.18328857421875
 30
-61.99981689453125
 11
-124.4133529663086
 21
-149.01422119140625
 31
-61.99981689453125
  0
LINE
  8
0
 10
-124.4133529663086
 20
-149.01422119140625
 30
-61.99981689453125
 11
-124.58241271972656
 21
-148.8221435546875
 31
-61.99981689453125
  0
LINE
  8
0
 10
-124.58241271972656
 20
-148.8221435546875
 30
-61.99981689453125
 11
-124.72608184814453
 21
-148.60943603515625
 31
-61.99981689453125
  0
LINE
  8
0
 10
-124.72608184814453
 20
-148.60943603515625
 30
-61.99981689453125
 11
-124.84197235107422
 21
-148.37847900390625
 31
-61.99981689453125
  0
LINE
  8
0
 10
-124.84197235107422
 20
-148.37847900390625
 30
-61.99981689453125
 11
-124.92769622802734
 21
-148.13165283203125
 31
-61.99981689453125
  0
LINE
  8
0
 10
-124.92769622802734
 20
-148.13165283203125
 30
-61.99981689453125
 11
-124.98088073730469
 21
-147.87136840820312
 31
-61.99981689453125
  0
LINE
  8
0
 10
-124.98088073730469
 20
-147.87136840820312
 30
-61.99981689453125
 11
-124.99913787841797
 21
-147.60000610351562
 31
-61.99981689453125
  0
LINE
  8
0
 10
-124.99913787841797
 20
-147.60000610351562
 30
-61.99981689453125
 11
-124.99913787841797
 21
-147.34173583984375
 31
-61.99981689453125
  0
LINE
  8
0
 10
-124.99913787841797
 20
-147.34173583984375
 30
-61.99981689453125
 11
-124.99913787841797
 21
-147.08346557617188
 31
-61.99981689453125
  0
LINE
  8
0
 10
-124.99913787841797
 20
-147.08346557617188
 30
-61.99981689453125
 11
-124.99913787841797
 21
-146.8251953125
 31
-61.99981689453125
  0
LINE
  8
0
 10
-124.99913787841797
 20
-146.8251953125
 30
-61.99981689453125
 11
-124.99913787841797
 21
-146.56692504882812
 31
-61.99981689453125
  0
LINE
  8
0
 10
-124.99913787841797
 20
-146.56692504882812
 30
-61.99981689453125
 11
-124.99913787841797
 21
-146.30865478515625
 31
-61.99981689453125
  0
LINE
  8
0
 10
-124.99913787841797
 20
-146.30865478515625
 30
-61.99981689453125
 11
-124.99913787841797
 21
-146.05038452148438
 31
-61.99981689453125
  0
LINE
  8
0
 10
-124.99913787841797
 20
-146.05038452148438
 30
-61.99981689453125
 11
-124.99913787841797
 21
-145.7921142578125
 31
-61.99981689453125
  0
LINE
  8
0
 10
-124.99913787841797
 20
-145.7921142578125
 30
-61.99981689453125
 11
-124.99913787841797
 21
-145.53384399414062
 31
-61.99981689453125
  0
LINE
  8
0
 10
-124.99913787841797
 20
-145.53384399414062
 30
-61.99981689453125
 11
-124.99913787841797
 21
-145.27557373046875
 31
-61.99981689453125
  0
LINE
  8
0
 10
-124.99913787841797
 20
-145.27557373046875
 30
-61.99981689453125
 11
-124.99913787841797
 21
-145.01730346679688
 31
-61.99981689453125
  0
LINE
  8
0
 10
-124.99913787841797
 20
-145.01730346679688
 30
-61.99981689453125
 11
-124.99913787841797
 21
-144.759033203125
 31
-61.99981689453125
  0
LINE
  8
0
 10
-124.99913787841797
 20
-144.759033203125
 30
-61.99981689453125
 11
-124.9991455078125
 21
-144.50088500976562
 31
-61.99981689453125
  0
LINE
  8
0
 10
-124.9991455078125
 20
-144.50088500976562
 30
-61.99981689453125
 11
-125.19542694091797
 21
-141.58346557617188
 31
-61.99981689453125
  0
LINE
  8
0
 10
-125.19542694091797
 20
-141.58346557617188
 30
-61.99981689453125
 11
-125.76716613769531
 21
-138.78533935546875
 31
-61.99981689453125
  0
LINE
  8
0
 10
-125.76716613769531
 20
-138.78533935546875
 30
-61.99981689453125
 11
-126.68875122070312
 21
-136.13211059570312
 31
-61.99981689453125
  0
LINE
  8
0
 10
-126.68875122070312
 20
-136.13211059570312
 30
-61.99981689453125
 11
-127.93456268310547
 21
-133.6494140625
 31
-61.99981689453125
  0
LINE
  8
0
 10
-127.93456268310547
 20
-133.6494140625
 30
-61.99981689453125
 11
-129.47897338867188
 21
-131.36288452148438
 31
-61.99981689453125
  0
LINE
  8
0
 10
-129.47897338867188
 20
-131.36288452148438
 30
-61.99981689453125
 11
-131.29638671875
 21
-129.298095703125
 31
-61.99981689453125
  0
LINE
  8
0
 10
-131.29638671875
 20
-129.298095703125
 30
-61.99981689453125
 11
-133.36119079589844
 21
-127.48068237304688
 31
-61.99981689453125
  0
LINE
  8
0
 10
-133.36119079589844
 20
-127.48068237304688
 30
-61.99981689453125
 11
-135.64773559570312
 21
-125.936279296875
 31
-61.99981689453125
  0
LINE
  8
0
 10
-135.64773559570312
 20
-125.936279296875
 30
-61.99981689453125
 11
-138.13043212890625
 21
-124.69049072265625
 31
-61.99981689453125
  0
LINE
  8
0
 10
-138.13043212890625
 20
-124.69049072265625
 30
-61.99981689453125
 11
-140.78366088867188
 21
-123.7689208984375
 31
-61.99981689453125
  0
LINE
  8
0
 10
-140.78366088867188
 20
-123.7689208984375
 30
-61.99981689453125
 11
-143.581787109375
 21
-123.19720458984375
 31
-61.99981689453125
  0
LINE
  8
0
 10
-143.581787109375
 20
-123.19720458984375
 30
-61.99981689453125
 11
-146.49920654296875
 21
-123.00094604492188
 31
-61.99981689453125
  0
LINE
  8
0
 10
-146.49920654296875
 20
-123.00094604492188
 30
-61.99981689453125
 11
-146.59092712402344
 21
-123.00094604492188
 31
-61.99981689453125
  0
LINE
  8
0
 10
-146.59092712402344
 20
-123.00094604492188
 30
-61.99981689453125
 11
-146.68264770507812
 21
-123.00094604492188
 31
-61.99981689453125
  0
LINE
  8
0
 10
-146.68264770507812
 20
-123.00094604492188
 30
-61.99981689453125
 11
-146.77438354492188
 21
-123.00094604492188
 31
-61.99981689453125
  0
LINE
  8
0
 10
-146.77438354492188
 20
-123.00094604492188
 30
-61.99981689453125
 11
-146.86610412597656
 21
-123.00094604492188
 31
-61.99981689453125
  0
LINE
  8
0
 10
-146.86610412597656
 20
-123.00094604492188
 30
-61.99981689453125
 11
-146.95782470703125
 21
-123.00094604492188
 31
-61.99981689453125
  0
LINE
  8
0
 10
-146.95782470703125
 20
-123.00094604492188
 30
-61.99981689453125
 11
-147.04954528808594
 21
-123.00094604492188
 31
-61.99981689453125
  0
LINE
  8
0
 10
-147.04954528808594
 20
-123.00094604492188
 30
-61.99981689453125
 11
-147.14126586914062
 21
-123.00094604492188
 31
-61.99981689453125
  0
LINE
  8
0
 10
-147.14126586914062
 20
-123.00094604492188
 30
-61.99981689453125
 11
-147.23300170898438
 21
-123.00094604492188
 31
-61.99981689453125
  0
LINE
  8
0
 10
-147.23300170898438
 20
-123.00094604492188
 30
-61.99981689453125
 11
-147.32472229003906
 21
-123.00094604492188
 31
-61.99981689453125
  0
LINE
  8
0
 10
-147.32472229003906
 20
-123.00094604492188
 30
-61.99981689453125
 11
-147.41644287109375
 21
-123.00094604492188
 31
-61.99981689453125
  0
LINE
  8
0
 10
-147.41644287109375
 20
-123.00094604492188
 30
-61.99981689453125
 11
-147.5081787109375
 21
-123.00094604492188
 31
-61.99981689453125
  0
LINE
  8
0
 10
-147.5081787109375
 20
-123.00094604492188
 30
-61.99981689453125
 11
-147.59988403320312
 21
-123.00094604492188
 31
-61.99981689453125
  0
LINE
  8
0
 10
-147.59988403320312
 20
-123.00094604492188
 30
-61.99981689453125
 11
-147.87127685546875
 21
-122.98269653320312
 31
-61.99981689453125
  0
LINE
  8
0
 10
-147.87127685546875
 20
-122.98269653320312
 30
-61.99981689453125
 11
-148.13156127929688
 21
-122.92950439453125
 31
-61.99981689453125
  0
LINE
  8
0
 10
-148.13156127929688
 20
-122.92950439453125
 30
-61.99981689453125
 11
-148.37838745117188
 21
-122.84378051757812
 31
-61.99981689453125
  0
LINE
  8
0
 10
-148.37838745117188
 20
-122.84378051757812
 30
-61.99981689453125
 11
-148.6093292236328
 21
-122.7279052734375
 31
-61.99981689453125
  0
LINE
  8
0
 10
-148.6093292236328
 20
-122.7279052734375
 30
-61.99981689453125
 11
-148.82205200195312
 21
-122.584228515625
 31
-61.99981689453125
  0
LINE
  8
0
 10
-148.82205200195312
 20
-122.584228515625
 30
-61.99981689453125
 11
-149.01412963867188
 21
-122.4151611328125
 31
-61.99981689453125
  0
LINE
  8
0
 10
-149.01412963867188
 20
-122.4151611328125
 30
-61.99981689453125
 11
-149.18319702148438
 21
-122.22308349609375
 31
-61.99981689453125
  0
LINE
  8
0
 10
-149.18319702148438
 20
-122.22308349609375
 30
-61.99981689453125
 11
-149.32687377929688
 21
-122.0103759765625
 31
-61.99981689453125
  0
LINE
  8
0
 10
-149.32687377929688
 20
-122.0103759765625
 30
-61.99981689453125
 11
-149.44276428222656
 21
-121.7794189453125
 31
-61.99981689453125
  0
LINE
  8
0
 10
-149.44276428222656
 20
-121.7794189453125
 30
-61.99981689453125
 11
-149.5284881591797
 21
-121.5325927734375
 31
-61.99981689453125
  0
LINE
  8
0
 10
-149.5284881591797
 20
-121.5325927734375
 30
-61.99981689453125
 11
-149.58168029785156
 21
-121.27230834960938
 31
-61.99981689453125
  0
LINE
  8
0
 10
-149.58168029785156
 20
-121.27230834960938
 30
-61.99981689453125
 11
-149.59994506835938
 21
-121.00094604492188
 31
-61.99981689453125
  0
LINE
  8
0
 10
-149.59994506835938
 20
-121.00094604492188
 30
-61.99981689453125
 11
-149.59994506835938
 21
-93.31329345703125
 31
-61.99981689453125
  0
LINE
  8
0
 10
-149.59994506835938
 20
-93.31329345703125
 30
-61.99981689453125
 11
-149.59994506835938
 21
-70.00064086914062
 31
-61.99981689453125
  0
LINE
  8
0
 10
-149.59994506835938
 20
-70.00064086914062
 30
-61.99981689453125
 11
-149.59994506835938
 21
-50.18798828125
 31
-61.99981689453125
  0
LINE
  8
0
 10
-149.59994506835938
 20
-50.18798828125
 30
-61.99981689453125
 11
-149.5999298095703
 21
-33.000335693359375
 31
-61.99981689453125
  0
LINE
  8
0
 10
-149.5999298095703
 20
-33.000335693359375
 30
-61.99981689453125
 11
-149.59991455078125
 21
-17.56268310546875
 31
-61.99981689453125
  0
LINE
  8
0
 10
-149.59991455078125
 20
-17.56268310546875
 30
-61.99981689453125
 11
-149.59991455078125
 21
-3.000030517578125
 31
-61.99981689453125
  0
LINE
  8
0
 10
-149.59991455078125
 20
-3.000030517578125
 30
-61.99981689453125
 11
-149.59991455078125
 21
11.5626220703125
 31
-61.99981689453125
  0
LINE
  8
0
 10
-149.59991455078125
 20
11.5626220703125
 30
-61.99981689453125
 11
-149.5998992919922
 21
27.000274658203125
 31
-61.99981689453125
  0
LINE
  8
0
 10
-149.5998992919922
 20
27.000274658203125
 30
-61.99981689453125
 11
-149.59988403320312
 21
44.18792724609375
 31
-61.99981689453125
  0
LINE
  8
0
 10
-149.59988403320312
 20
44.18792724609375
 30
-61.99981689453125
 11
-149.59988403320312
 21
64.00057983398438
 31
-61.99981689453125
  0
LINE
  8
0
 10
-149.59988403320312
 20
64.00057983398438
 30
-61.99981689453125
 11
-149.59988403320312
 21
87.31324005126953
 31
-61.99981689453125
  0
LINE
  8
0
 10
-149.59988403320312
 20
87.31324005126953
 30
-61.99981689453125
 11
-149.59988403320312
 21
115.00093078613281
 31
-61.99981689453125
  0
LINE
  8
0
 10
-149.59988403320312
 20
115.00093078613281
 30
-61.99981689453125
 11
-149.58163452148438
 21
115.27232360839844
 31
-61.99981689453125
  0
LINE
  8
0
 10
-149.58163452148438
 20
115.27232360839844
 30
-61.99981689453125
 11
-149.5284423828125
 21
115.5326156616211
 31
-61.99981689453125
  0
LINE
  8
0
 10
-149.5284423828125
 20
115.5326156616211
 30
-61.99981689453125
 11
-149.44271850585938
 21
115.77942657470703
 31
-61.99981689453125
  0
LINE
  8
0
 10
-149.44271850585938
 20
115.77942657470703
 30
-61.99981689453125
 11
-149.3268280029297
 21
116.0103759765625
 31
-61.99981689453125
  0
LINE
  8
0
 10
-149.3268280029297
 20
116.0103759765625
 30
-61.99981689453125
 11
-149.18316650390625
 21
116.22307586669922
 31
-61.99981689453125
  0
LINE
  8
0
 10
-149.18316650390625
 20
116.22307586669922
 30
-61.99981689453125
 11
-149.01409912109375
 21
116.41514587402344
 31
-61.99981689453125
  0
LINE
  8
0
 10
-149.01409912109375
 20
116.41514587402344
 30
-61.99981689453125
 11
-148.822021484375
 21
116.5842056274414
 31
-61.99981689453125
  0
LINE
  8
0
 10
-148.822021484375
 20
116.5842056274414
 30
-61.99981689453125
 11
-148.60931396484375
 21
116.72787475585938
 31
-61.99981689453125
  0
LINE
  8
0
 10
-148.60931396484375
 20
116.72787475585938
 30
-61.99981689453125
 11
-148.3783721923828
 21
116.84376525878906
 31
-61.99981689453125
  0
LINE
  8
0
 10
-148.3783721923828
 20
116.84376525878906
 30
-61.99981689453125
 11
-148.13156127929688
 21
116.92948913574219
 31
-61.99981689453125
  0
LINE
  8
0
 10
-148.13156127929688
 20
116.92948913574219
 30
-61.99981689453125
 11
-147.87127685546875
 21
116.98267364501953
 31
-61.99981689453125
  0
LINE
  8
0
 10
-147.87127685546875
 20
116.98267364501953
 30
-61.99981689453125
 11
-147.59988403320312
 21
117.00093078613281
 31
-61.99981689453125
  0
LINE
  8
0
 10
-147.59988403320312
 20
117.00093078613281
 30
-61.99981689453125
 11
-147.50814819335938
 21
117.00093078613281
 31
-61.99981689453125
  0
LINE
  8
0
 10
-147.50814819335938
 20
117.00093078613281
 30
-61.99981689453125
 11
-147.4164276123047
 21
117.00093078613281
 31
-61.99981689453125
  0
LINE
  8
0
 10
-147.4164276123047
 20
117.00093078613281
 30
-61.99981689453125
 11
-147.32470703125
 21
117.00093078613281
 31
-61.99981689453125
  0
LINE
  8
0
 10
-147.32470703125
 20
117.00093078613281
 30
-61.99981689453125
 11
-147.2329864501953
 21
117.00093078613281
 31
-61.99981689453125
  0
LINE
  8
0
 10
-147.2329864501953
 20
117.00093078613281
 30
-61.99981689453125
 11
-147.14126586914062
 21
117.00093078613281
 31
-61.99981689453125
  0
LINE
  8
0
 10
-147.14126586914062
 20
117.00093078613281
 30
-61.99981689453125
 11
-147.04953002929688
 21
117.00093078613281
 31
-61.99981689453125
  0
LINE
  8
0
 10
-147.04953002929688
 20
117.00093078613281
 30
-61.99981689453125
 11
-146.9578094482422
 21
117.00093078613281
 31
-61.99981689453125
  0
LINE
  8
0
 10
-146.9578094482422
 20
117.00093078613281
 30
-61.99981689453125
 11
-146.8660888671875
 21
117.00093078613281
 31
-61.99981689453125
  0
LINE
  8
0
 10
-146.8660888671875
 20
117.00093078613281
 30
-61.99981689453125
 11
-146.7743682861328
 21
117.00093078613281
 31
-61.99981689453125
  0
LINE
  8
0
 10
-146.7743682861328
 20
117.00093078613281
 30
-61.99981689453125
 11
-146.68264770507812
 21
117.00093078613281
 31
-61.99981689453125
  0
LINE
  8
0
 10
-146.68264770507812
 20
117.00093078613281
 30
-61.99981689453125
 11
-146.59092712402344
 21
117.00093078613281
 31
-61.99981689453125
  0
LINE
  8
0
 10
-146.59092712402344
 20
117.00093078613281
 30
-61.99981689453125
 11
-146.49920654296875
 21
117.00093078613281
 31
-61.99981689453125
  0
LINE
  8
0
 10
-146.49920654296875
 20
117.00093078613281
 30
-61.99981689453125
 11
-143.581787109375
 21
117.19718933105469
 31
-61.99981689453125
  0
LINE
  8
0
 10
-143.581787109375
 20
117.19718933105469
 30
-61.99981689453125
 11
-140.78366088867188
 21
117.76891326904297
 31
-61.99981689453125
  0
LINE
  8
0
 10
-140.78366088867188
 20
117.76891326904297
 30
-61.99981689453125
 11
-138.13043212890625
 21
118.69048309326172
 31
-61.99981689453125
  0
LINE
  8
0
 10
-138.13043212890625
 20
118.69048309326172
 30
-61.99981689453125
 11
-135.64773559570312
 21
119.936279296875
 31
-61.99981689453125
  0
LINE
  8
0
 10
-135.64773559570312
 20
119.936279296875
 30
-61.99981689453125
 11
-133.36119079589844
 21
121.4806900024414
 31
-61.99981689453125
  0
LINE
  8
0
 10
-133.36119079589844
 20
121.4806900024414
 30
-61.99981689453125
 11
-131.29640197753906
 21
123.298095703125
 31
-61.99981689453125
  0
LINE
  8
0
 10
-131.29640197753906
 20
123.298095703125
 30
-61.99981689453125
 11
-129.47897338867188
 21
125.36287689208984
 31
-61.99981689453125
  0
LINE
  8
0
 10
-129.47897338867188
 20
125.36287689208984
 30
-61.99981689453125
 11
-127.93456268310547
 21
127.64942169189453
 31
-61.99981689453125
  0
LINE
  8
0
 10
-127.93456268310547
 20
127.64942169189453
 30
-61.99981689453125
 11
-126.68875122070312
 21
130.13211059570312
 31
-61.99981689453125
  0
LINE
  8
0
 10
-126.68875122070312
 20
130.13211059570312
 30
-61.99981689453125
 11
-125.76716613769531
 21
132.7853240966797
 31
-61.99981689453125
  0
LINE
  8
0
 10
-125.76716613769531
 20
132.7853240966797
 30
-61.99981689453125
 11
-125.19542694091797
 21
135.5834503173828
 31
-61.99981689453125
  0
LINE
  8
0
 10
-125.19542694091797
 20
135.5834503173828
 30
-61.99981689453125
 11
-124.9991455078125
 21
138.50086975097656
 31
-61.99981689453125
  0
LINE
  8
0
 10
-124.9991455078125
 20
138.50086975097656
 30
-61.99981689453125
 11
-124.9991455078125
 21
138.75912475585938
 31
-61.99981689453125
  0
LINE
  8
0
 10
-124.9991455078125
 20
138.75912475585938
 30
-61.99981689453125
 11
-124.9991455078125
 21
139.01739501953125
 31
-61.99981689453125
  0
LINE
  8
0
 10
-124.9991455078125
 20
139.01739501953125
 30
-61.99981689453125
 11
-124.9991455078125
 21
139.27566528320312
 31
-61.99981689453125
  0
LINE
  8
0
 10
-124.9991455078125
 20
139.27566528320312
 30
-61.99981689453125
 11
-124.9991455078125
 21
139.53392028808594
 31
-61.99981689453125
  0
LINE
  8
0
 10
-124.9991455078125
 20
139.53392028808594
 30
-61.99981689453125
 11
-124.9991455078125
 21
139.79217529296875
 31
-61.99981689453125
  0
LINE
  8
0
 10
-124.9991455078125
 20
139.79217529296875
 30
-61.99981689453125
 11
-124.9991455078125
 21
140.05044555664062
 31
-61.99981689453125
  0
LINE
  8
0
 10
-124.9991455078125
 20
140.05044555664062
 30
-61.99981689453125
 11
-124.9991455078125
 21
140.3087158203125
 31
-61.99981689453125
  0
LINE
  8
0
 10
-124.9991455078125
 20
140.3087158203125
 30
-61.99981689453125
 11
-124.9991455078125
 21
140.5669708251953
 31
-61.99981689453125
  0
LINE
  8
0
 10
-124.9991455078125
 20
140.5669708251953
 30
-61.99981689453125
 11
-124.9991455078125
 21
140.82522583007812
 31
-61.99981689453125
  0
LINE
  8
0
 10
-124.9991455078125
 20
140.82522583007812
 30
-61.99981689453125
 11
-124.9991455078125
 21
141.08349609375
 31
-61.99981689453125
  0
LINE
  8
0
 10
-124.9991455078125
 20
141.08349609375
 30
-61.99981689453125
 11
-124.9991455078125
 21
141.34176635742188
 31
-61.99981689453125
  0
LINE
  8
0
 10
-124.9991455078125
 20
141.34176635742188
 30
-61.99981689453125
 11
-124.99913787841797
 21
141.60000610351562
 31
-61.99981689453125
  0
LINE
  8
0
 10
-124.99913787841797
 20
141.60000610351562
 30
-61.99981689453125
 11
-124.98088073730469
 21
141.87139892578125
 31
-61.99981689453125
  0
LINE
  8
0
 10
-124.98088073730469
 20
141.87139892578125
 30
-61.99981689453125
 11
-124.92769622802734
 21
142.13168334960938
 31
-61.99981689453125
  0
LINE
  8
0
 10
-124.92769622802734
 20
142.13168334960938
 30
-61.99981689453125
 11
-124.84196472167969
 21
142.3784942626953
 31
-61.99981689453125
  0
LINE
  8
0
 10
-124.84196472167969
 20
142.3784942626953
 30
-61.99981689453125
 11
-124.72607421875
 21
142.60943603515625
 31
-61.99981689453125
  0
LINE
  8
0
 10
-124.72607421875
 20
142.60943603515625
 30
-61.99981689453125
 11
-124.58240509033203
 21
142.8221435546875
 31
-61.99981689453125
  0
LINE
  8
0
 10
-124.58240509033203
 20
142.8221435546875
 30
-61.99981689453125
 11
-124.41334533691406
 21
143.01422119140625
 31
-61.99981689453125
  0
LINE
  8
0
 10
-124.41334533691406
 20
143.01422119140625
 30
-61.99981689453125
 11
-124.22127532958984
 21
143.1832733154297
 31
-61.99981689453125
  0
LINE
  8
0
 10
-124.22127532958984
 20
143.1832733154297
 30
-61.99981689453125
 11
-124.00857543945312
 21
143.32693481445312
 31
-61.99981689453125
  0
LINE
  8
0
 10
-124.00857543945312
 20
143.32693481445312
 30
-61.99981689453125
 11
-123.77762603759766
 21
143.4428253173828
 31
-61.99981689453125
  0
LINE
  8
0
 10
-123.77762603759766
 20
143.4428253173828
 30
-61.99981689453125
 11
-123.53081512451172
 21
143.528564453125
 31
-61.99981689453125
  0
LINE
  8
0
 10
-123.53081512451172
 20
143.528564453125
 30
-61.99981689453125
 11
-123.27052307128906
 21
143.5817413330078
 31
-61.99981689453125
  0
LINE
  8
0
 10
-123.27052307128906
 20
143.5817413330078
 30
-61.99981689453125
 11
-122.99913787841797
 21
143.60000610351562
 31
-61.99981689453125
  0
LINE
  8
0
 10
-122.99913787841797
 20
143.60000610351562
 30
-61.99981689453125
 11
-110.45634460449219
 21
143.60000610351562
 31
-61.99981689453125
  0
LINE
  8
0
 10
-110.45634460449219
 20
143.60000610351562
 30
-61.99981689453125
 11
-93.57328796386719
 21
143.60000610351562
 31
-61.99981689453125
  0
LINE
  8
0
 10
-93.57328796386719
 20
143.60000610351562
 30
-61.99981689453125
 11
-73.218017578125
 21
143.60000610351562
 31
-61.99981689453125
  0
LINE
  8
0
 10
-73.218017578125
 20
143.60000610351562
 30
-61.99981689453125
 11
-50.258575439453125
 21
143.60000610351562
 31
-61.99981689453125
  0
LINE
  8
0
 10
-50.258575439453125
 20
143.60000610351562
 30
-61.99981689453125
 11
-25.563034057617188
 21
143.60000610351562
 31
-61.99981689453125
  0
LINE
  8
0
 10
-25.563034057617188
 20
143.60000610351562
 30
-61.99981689453125
 11
0.0005645751953125
 21
143.60000610351562
 31
-61.99981689453125
  0
LINE
  8
0
 10
0.0005645751953125
 20
143.60000610351562
 30
-61.99981689453125
 11
25.564163208007812
 21
143.60000610351562
 31
-61.99981689453125
  0
LINE
  8
0
 10
25.564163208007812
 20
143.60000610351562
 30
-61.99981689453125
 11
50.25970458984375
 21
143.60000610351562
 31
-61.99981689453125
  0
LINE
  8
0
 10
50.25970458984375
 20
143.60000610351562
 30
-61.99981689453125
 11
73.21914672851562
 21
143.60000610351562
 31
-61.99981689453125
  0
LINE
  8
0
 10
73.21914672851562
 20
143.60000610351562
 30
-61.99981689453125
 11
93.57440185546875
 21
143.60000610351562
 31
-61.99981689453125
  0
LINE
  8
0
 10
93.57440185546875
 20
143.60000610351562
 30
-61.99981689453125
 11
110.45745849609375
 21
143.60000610351562
 31
-61.99981689453125
  0
LINE
  8
0
 10
110.45745849609375
 20
143.60000610351562
 30
-61.99981689453125
 11
123.00027465820312
 21
143.60000610351562
 31
-61.99981689453125
  0
LINE
  8
0
 10
123.00027465820312
 20
143.60000610351562
 30
-61.99981689453125
 11
123.27166748046875
 21
143.5817413330078
 31
-61.99981689453125
  0
LINE
  8
0
 10
123.27166748046875
 20
143.5817413330078
 30
-61.99981689453125
 11
123.53195190429688
 21
143.528564453125
 31
-61.99981689453125
  0
LINE
  8
0
 10
123.53195190429688
 20
143.528564453125
 30
-61.99981689453125
 11
123.77877807617188
 21
143.4428253173828
 31
-61.99981689453125
  0
LINE
  8
0
 10
123.77877807617188
 20
143.4428253173828
 30
-61.99981689453125
 11
124.00973510742188
 21
143.32693481445312
 31
-61.99981689453125
  0
LINE
  8
0
 10
124.00973510742188
 20
143.32693481445312
 30
-61.99981689453125
 11
124.22244262695312
 21
143.1832733154297
 31
-61.99981689453125
  0
LINE
  8
0
 10
124.22244262695312
 20
143.1832733154297
 30
-61.99981689453125
 11
124.41452026367188
 21
143.01422119140625
 31
-61.99981689453125
  0
LINE
  8
0
 10
124.41452026367188
 20
143.01422119140625
 30
-61.99981689453125
 11
124.58358764648438
 21
142.8221435546875
 31
-61.99981689453125
  0
LINE
  8
0
 10
124.58358764648438
 20
142.8221435546875
 30
-61.99981689453125
 11
124.72726440429688
 21
142.60943603515625
 31
-61.99981689453125
  0
LINE
  8
0
 10
124.72726440429688
 20
142.60943603515625
 30
-61.99981689453125
 11
124.8431396484375
 21
142.3784942626953
 31
-61.99981689453125
  0
LINE
  8
0
 10
124.8431396484375
 20
142.3784942626953
 30
-61.99981689453125
 11
124.92886352539062
 21
142.13168334960938
 31
-61.99981689453125
  0
LINE
  8
0
 10
124.92886352539062
 20
142.13168334960938
 30
-61.99981689453125
 11
124.9820556640625
 21
141.8713836669922
 31
-61.99981689453125
  0
LINE
  8
0
 10
124.9820556640625
 20
141.8713836669922
 30
-61.99981689453125
 11
125.00027465820312
 21
141.60000610351562
 31
-61.99981689453125
  0
LINE
  8
0
 10
125.00027465820312
 20
141.60000610351562
 30
-61.99981689453125
 11
125.00027465820312
 21
141.34170532226562
 31
-61.99981689453125
  0
LINE
  8
0
 10
125.00027465820312
 20
141.34170532226562
 30
-61.99981689453125
 11
125.00027465820312
 21
141.08340454101562
 31
-61.99981689453125
  0
LINE
  8
0
 10
125.00027465820312
 20
141.08340454101562
 30
-61.99981689453125
 11
125.00027465820312
 21
140.82510375976562
 31
-61.99981689453125
  0
LINE
  8
0
 10
125.00027465820312
 20
140.82510375976562
 30
-61.99981689453125
 11
125.00027465820312
 21
140.56680297851562
 31
-61.99981689453125
  0
LINE
  8
0
 10
125.00027465820312
 20
140.56680297851562
 30
-61.99981689453125
 11
125.00027465820312
 21
140.3085174560547
 31
-61.99981689453125
  0
LINE
  8
0
 10
125.00027465820312
 20
140.3085174560547
 30
-61.99981689453125
 11
125.00027465820312
 21
140.0502166748047
 31
-61.99981689453125
  0
LINE
  8
0
 10
125.00027465820312
 20
140.0502166748047
 30
-61.99981689453125
 11
125.00027465820312
 21
139.7919158935547
 31
-61.99981689453125
  0
LINE
  8
0
 10
125.00027465820312
 20
139.7919158935547
 30
-61.99981689453125
 11
125.00027465820312
 21
139.53363037109375
 31
-61.99981689453125
  0
LINE
  8
0
 10
125.00027465820312
 20
139.53363037109375
 30
-61.99981689453125
 11
125.00027465820312
 21
139.27532958984375
 31
-61.99981689453125
  0
LINE
  8
0
 10
125.00027465820312
 20
139.27532958984375
 30
-61.99981689453125
 11
125.00027465820312
 21
139.01702880859375
 31
-61.99981689453125
  0
LINE
  8
0
 10
125.00027465820312
 20
139.01702880859375
 30
-61.99981689453125
 11
125.00027465820312
 21
138.75872802734375
 31
-61.99981689453125
  0
LINE
  8
0
 10
125.00027465820312
 20
138.75872802734375
 30
-61.99981689453125
 11
125.00027465820312
 21
138.50042724609375
 31
-61.99981689453125
  0
LINE
  8
0
 10
125.00027465820312
 20
138.50042724609375
 30
-61.99981689453125
 11
125.196533203125
 21
135.5830078125
 31
-61.99981689453125
  0
LINE
  8
0
 10
125.196533203125
 20
135.5830078125
 30
-61.99981689453125
 11
125.76824951171875
 21
132.78488159179688
 31
-61.99981689453125
  0
LINE
  8
0
 10
125.76824951171875
 20
132.78488159179688
 30
-61.99981689453125
 11
126.6898193359375
 21
130.13165283203125
 31
-61.99981689453125
  0
LINE
  8
0
 10
126.6898193359375
 20
130.13165283203125
 30
-61.99981689453125
 11
127.93563842773438
 21
127.64897155761719
 31
-61.99981689453125
  0
LINE
  8
0
 10
127.93563842773438
 20
127.64897155761719
 30
-61.99981689453125
 11
129.48004150390625
 21
125.36241912841797
 31
-61.99981689453125
  0
LINE
  8
0
 10
129.48004150390625
 20
125.36241912841797
 30
-61.99981689453125
 11
131.29745483398438
 21
123.2976303100586
 31
-61.99981689453125
  0
LINE
  8
0
 10
131.29745483398438
 20
123.2976303100586
 30
-61.99981689453125
 11
133.36224365234375
 21
121.48021697998047
 31
-61.99981689453125
  0
LINE
  8
0
 10
133.36224365234375
 20
121.48021697998047
 30
-61.99981689453125
 11
135.6488037109375
 21
119.93579864501953
 31
-61.99981689453125
  0
LINE
  8
0
 10
135.6488037109375
 20
119.93579864501953
 30
-61.99981689453125
 11
138.13150024414062
 21
118.68999481201172
 31
-61.99981689453125
  0
LINE
  8
0
 10
138.13150024414062
 20
118.68999481201172
 30
-61.99981689453125
 11
140.78472900390625
 21
117.76841735839844
 31
-61.99981689453125
  0
LINE
  8
0
 10
140.78472900390625
 20
117.76841735839844
 30
-61.99981689453125
 11
143.58285522460938
 21
117.19668579101562
 31
-61.99981689453125
  0
LINE
  8
0
 10
143.58285522460938
 20
117.19668579101562
 30
-61.99981689453125
 11
146.50027465820312
 21
117.00042724609375
 31
-61.99981689453125
  0
LINE
  8
0
 10
146.50027465820312
 20
117.00042724609375
 30
-61.99981689453125
 11
146.5919189453125
 21
117.00042724609375
 31
-61.99981689453125
  0
LINE
  8
0
 10
146.5919189453125
 20
117.00042724609375
 30
-61.99981689453125
 11
146.68356323242188
 21
117.00042724609375
 31
-61.99981689453125
  0
LINE
  8
0
 10
146.68356323242188
 20
117.00042724609375
 30
-61.99981689453125
 11
146.77520751953125
 21
117.00042724609375
 31
-61.99981689453125
  0
LINE
  8
0
 10
146.77520751953125
 20
117.00042724609375
 30
-61.99981689453125
 11
146.86685180664062
 21
117.00042724609375
 31
-61.99981689453125
  0
LINE
  8
0
 10
146.86685180664062
 20
117.00042724609375
 30
-61.99981689453125
 11
146.95849609375
 21
117.00042724609375
 31
-61.99981689453125
  0
LINE
  8
0
 10
146.95849609375
 20
117.00042724609375
 30
-61.99981689453125
 11
147.05014038085938
 21
117.00042724609375
 31
-61.99981689453125
  0
LINE
  8
0
 10
147.05014038085938
 20
117.00042724609375
 30
-61.99981689453125
 11
147.14178466796875
 21
117.00042724609375
 31
-61.99981689453125
  0
LINE
  8
0
 10
147.14178466796875
 20
117.00042724609375
 30
-61.99981689453125
 11
147.23342895507812
 21
117.00042724609375
 31
-61.99981689453125
  0
LINE
  8
0
 10
147.23342895507812
 20
117.00042724609375
 30
-61.99981689453125
 11
147.3250732421875
 21
117.00042724609375
 31
-61.99981689453125
  0
LINE
  8
0
 10
147.3250732421875
 20
117.00042724609375
 30
-61.99981689453125
 11
147.41671752929688
 21
117.00042724609375
 31
-61.99981689453125
  0
LINE
  8
0
 10
147.41671752929688
 20
117.00042724609375
 30
-61.99981689453125
 11
147.50836181640625
 21
117.00042724609375
 31
-61.99981689453125
  0
LINE
  8
0
 10
147.50836181640625
 20
117.00042724609375
 30
-61.99981689453125
 11
147.60000610351562
 21
117.00042724609375
 31
-61.99981689453125
  0
LINE
  8
0
 10
147.60000610351562
 20
117.00042724609375
 30
-61.99981689453125
 11
147.87139892578125
 21
116.98217010498047
 31
-61.99981689453125
  0
LINE
  8
0
 10
147.87139892578125
 20
116.98217010498047
 30
-61.99981689453125
 11
148.13168334960938
 21
116.92898559570312
 31
-61.99981689453125
  0
LINE
  8
0
 10
148.13168334960938
 20
116.92898559570312
 30
-61.99981689453125
 11
148.37850952148438
 21
116.84326171875
 31
-61.99981689453125
  0
LINE
  8
0
 10
148.37850952148438
 20
116.84326171875
 30
-61.99981689453125
 11
148.60946655273438
 21
116.72737121582031
 31
-61.99981689453125
  0
LINE
  8
0
 10
148.60946655273438
 20
116.72737121582031
 30
-61.99981689453125
 11
148.82217407226562
 21
116.58370208740234
 31
-61.99981689453125
  0
LINE
  8
0
 10
148.82217407226562
 20
116.58370208740234
 30
-61.99981689453125
 11
149.01425170898438
 21
116.41464233398438
 31
-61.99981689453125
  0
LINE
  8
0
 10
149.01425170898438
 20
116.41464233398438
 30
-61.99981689453125
 11
149.18331909179688
 21
116.22257232666016
 31
-61.99981689453125
  0
LINE
  8
0
 10
149.18331909179688
 20
116.22257232666016
 30
-61.99981689453125
 11
149.32699584960938
 21
116.00987243652344
 31
-61.99981689453125
  0
LINE
  8
0
 10
149.32699584960938
 20
116.00987243652344
 30
-61.99981689453125
 11
149.44287109375
 21
115.77892303466797
 31
-61.99981689453125
  0
LINE
  8
0
 10
149.44287109375
 20
115.77892303466797
 30
-61.99981689453125
 11
149.52859497070312
 21
115.53211212158203
 31
-61.99981689453125
  0
LINE
  8
0
 10
149.52859497070312
 20
115.53211212158203
 30
-61.99981689453125
 11
149.581787109375
 21
115.27182006835938
 31
-61.99981689453125
  0
LINE
  8
0
 10
149.60000610351562
 20
115.00042724609375
 30
-61.99981689453125
 11
149.581787109375
 21
115.27182006835938
 31
-61.99981689453125
  0
ENDSEC
  0
EOF
